<?xml version="1.0" encoding="utf-8"?>
<!-- Generator: Adobe Illustrator 22.1.0, SVG Export Plug-In . SVG Version: 6.00 Build 0)  -->
<svg version="1.1" id="Слой_1" xmlns="http://www.w3.org/2000/svg" xmlns:xlink="http://www.w3.org/1999/xlink" x="0px" y="0px"
	 viewBox="0 0 338.7 224" style="enable-background:new 0 0 338.7 224;" xml:space="preserve">
<style type="text/css">
	.st0{fill:#A4FBFB;}
	.st1{fill:#F68408;}
	.st2{fill:#FB0C03;}
	.st3{fill:#F33719;}
	.st4{fill:#EEB42F;}
	.st5{fill:#080708;}
	.st6{fill:#FBA304;}
	.st7{fill:#050506;}
	.st8{fill:#040404;}
	.st9{fill:#21FB04;}
	.st10{fill:#51FB06;}
	.st11{fill:#9DF363;}
	.st12{fill:#050404;}
	.st13{fill:#3DFB06;}
	.st14{fill:#F9BB31;}
	.st15{fill:#0623F4;}
	.st16{fill:#37FBFB;}
	.st17{fill:#F19A0C;}
	.st18{fill:#F50406;}
	.st19{fill:#99FB0B;}
	.st20{fill:#11FBFB;}
	.st21{fill:#09090A;}
	.st22{fill:#2BFCFB;}
	.st23{fill:#0862F3;}
	.st24{fill:#07070A;}
	.st25{fill:#07060B;}
	.st26{fill:#39FB08;}
	.st27{fill:#20FB06;}
	.st28{fill:#0EFBF9;}
	.st29{fill:#F6D520;}
	.st30{fill:#0A0909;}
	.st31{fill:#0D0E0E;}
	.st32{fill:#44FBFB;}
	.st33{fill:#0B0907;}
	.st34{fill:#0C0B12;}
	.st35{fill:#0E0E0F;}
	.st36{fill:#070707;}
	.st37{fill:#0C0C0C;}
	.st38{fill:#F9E19B;}
	.st39{fill:#F9E0A4;}
	.st40{fill:#F8DFA6;}
	.st41{fill:#F8E09F;}
	.st42{fill:#F4D526;}
	.st43{fill:#F9DF9B;}
	.st44{fill:#101111;}
	.st45{fill:#0B0B0B;}
	.st46{fill:#84F7F9;}
	.st47{fill:#93FB3B;}
	.st48{fill:#FBDC24;}
	.st49{fill:#0E0E0E;}
	.st50{fill:#0430F7;}
	.st51{fill:#07090D;}
	.st52{fill:#80FEFC;}
	.st53{fill:#99FBFB;}
	.st54{fill:#12070D;}
	.st55{fill:#43FC04;}
	.st56{fill:#FFFFFF;}
	.st57{fill:#0E0E0C;}
	.st58{fill:none;stroke:#FBA304;stroke-width:7;stroke-miterlimit:10;}
	.st59{fill:none;stroke:#FB0C03;stroke-width:7;stroke-miterlimit:10;}
	.st60{fill:none;stroke:#11FBFB;stroke-width:7;stroke-miterlimit:10;}
	.st61{fill:none;stroke:#43FC04;stroke-width:7;stroke-miterlimit:10;}
</style>
<g id="logo">
	<g id="_97842278256">
		<g>
			<path class="st0" d="M187.2,101.8c-9.1,0-24.3,0.1-33.4,0.1c-0.2-2.5,2.5-4.9,2.2-7.9c-1.7,2.9-1,5.5-1.5,7.9c-1.8,0-3.6,0-5.4,0
				c-2.3,0.9-0.9,6.9-1.4,10.2c-3.2-1.6-6.4,0.5-9.6-0.2c-2-0.4-2.9-0.9-2.9-2.8c0-3.2,0-6.4-0.1-9.6c0-3.8-0.4-7.7,4.3-9.5
				c1.2-0.5,2.3-0.7,3.5-0.7c6.3,0,12.6,0,18.8-0.1c1.3,0,2.7,0.2,4-0.5c2.1-0.2,4.2,1,6.3,0c4,1.3,8,0.5,12.1,0.5s8.2,0,12.2,0
				c1.7,0,3.4,0,5.1,0c1.4,0.7,2.8,1,4.2,1.7c0.6,1.2,1.4,2.2,1.4,3.6c-7,2.5-14.2,1.2-21.3,1.5L187.2,101.8L187.2,101.8z"/>
			<path class="st1" d="M322,140.6c-0.9,4.7-2.7,6.4-7.3,6.4c-12.7,0-25.4,0-38,0c-4,0-6.1-1.8-7.3-5.9c0.1-3.7,0.2-7.4,0.3-11.2
				c0.8-0.7,0.5-2.3,2.1-2.2c3.4,0.3,6.9,0.5,10.3,0.7c0.1,1.5,0.3,3.1,0.5,4.8c2.1,0.6,4.1,0.7,6.1,0.3c1.9-2,0.4-4.4,1-6.6
				c4.2,0.2,8.5,1.5,12.3-1.5c0.1,2.5,0.3,5,0.5,8.2c2.4-1,5.7,2.5,6.6-2.4C311.6,136.8,316.4,139.3,322,140.6L322,140.6z"/>
			<path class="st2" d="M127.2,134.4c3.7,1.7,5.2,4.1,4.3,7.4c-0.9,3.3-3.2,5.2-6.7,5.2c-9.7,0-19.4,0-29.1,0
				c-3.1,0-5.4-1.3-6.3-4.4c0-2.6,0.1-5.2,0-7.8c0-1.6-0.1-3.2,1.8-4c1.9-0.8,3.6-0.3,5.2,0.6c0.8,0.4,0.9,1.9,2.1,1.7
				c1-0.8-0.1-2.6,1.7-3.1c2,1.2,0.1,4.2,1.8,5.1C110.6,133.7,118.9,134.9,127.2,134.4L127.2,134.4z"/>
			<path class="st3" d="M113.2,88.8c3.9,0,7.3,0.4,10.8,0.5c5,0.1,7.5,2.3,7.6,6.5c0.1,3.9-2.9,6.3-7.7,6.4c-6.1,0-12.3,0-18.4,0
				c-1.2,0-2.4-0.4-3.6,0.4c-0.6,0.3-0.7,0.9-0.8,1.5c-2.1,0.2-3.9-3.1-5.2-1.8c-2.5,2.4-4.3,0.4-6.4,0.4c-0.8-2.5,0.6-5.1-0.8-7.4
				c1-4.8,2.8-6.2,8.3-6.4C102.4,88.6,107.8,88.8,113.2,88.8L113.2,88.8L113.2,88.8z"/>
			<path class="st4" d="M70.4,90c5.7,0.8,9.5,4.2,12.3,8.9c0,0.6,0.1,1.2,0.8,1.4l0,0c-0.1,0.6,0,1.2,0.7,1.6l0,0
				c-1.8,1.9-5.9,1.8-9.4-0.3c-1.5,0.5-0.2,3.2-2.4,3.2c-0.3-0.9,0.5-2.1-0.8-2.6c-0.5-0.2-0.7,0.6-0.8,1c-0.3,0.1-0.6,0.2-0.9,0.2
				c-2.6-0.7-5.2-3.3-7.9-0.1c-3.2,0.2-6.6-0.7-9.6,1c-3.6-2.7-1.9-6.6-2.5-10c0-0.5,0-1,0-1.6c1.2-3,3.7-4,6.6-4.1
				c2.7-0.1,5.4-0.1,8.1-0.1c0.3,2-2.5,2.6-2.4,4.9c2.5,0.1,2.6-2.9,4.4-3.4c2.3-0.6,2.7,2.5,4.7,2.6C72.2,91.4,70.8,90.9,70.4,90z"
				/>
			<path class="st5" d="M172.2,88.8c-2.1,1-4.2-0.2-6.3,0c-4.7-0.5-9.7,0-14-1.3c-6.6-1.9-12.6-0.1-18.9,0.4c-2.4,0.2-3-1.2-3-3.1
				c-0.2-7.2,1.7-14.1,3.6-21.3c-4.7-3.4-9.7-7.1-14.8-10.8c-1.5-1.1-2.8-0.9-4.3,0.2c-1.4,1-2.6,2.8-4.7,2.3
				c0.3-2.4,2.8-2.6,3.9-4.1c-0.6-1.4-3.1-0.7-3-2.9c1.9-1.4,3.1,1.3,4.8,0.9c0.9-1.4-1-2.9,0.1-4.3c0.3,0.2,0.9,0.4,0.9,0.5
				c-0.1,4.9,4,6.2,7,8.5c2.6,1.9,5.4,3.6,7.7,5.8c1.6,1.5,4.1,0.6,5.4,2.4c-1.8,6.5-3.2,13.1-3.4,19.8c0,0.9,0,1.9,0,3.1
				c5-0.3,9.8-1.7,14.8-1.3c2.3-7.5-3.7-14.2-2.1-22.2c6.5,5.3,8.8,12.7,13,18.5c1.9,0.5,3.2-1.6,5.2-1c-0.6,1.8-2.5,1.3-3.5,2.3
				c-1,0.6-0.6,1.6-0.6,2.4c-0.4,1.6,0.2,2.5,2,2.7c2.5,0.3,5,0.9,7.4,1.4c1.2-2.3-1.5-4.8,0.8-7.3
				C173.2,82.7,170.7,86.3,172.2,88.8z M158.7,85.1L158.7,85.1c-2.6-6.7-6.8-11.9-9.7-17.9c1.2,6.1,3.3,11.9,2.2,18.3
				C153.5,85.5,155.6,85.3,158.7,85.1z"/>
			<path class="st2" d="M127.2,134.4c-8.3,0.5-16.6-0.7-25.1,0.8c-1.8-0.9,0.2-3.9-1.8-5.1c-1.9,0.5-0.7,2.3-1.7,3.1
				c-1.2,0.1-1.3-1.3-2.1-1.7c-1.6-0.9-3.3-1.4-5.2-0.6c-1.9,0.8-1.9,2.3-1.8,4c0,2.6,0,5.2,0,7.8c-1.2-1.3-0.7-2.8-0.7-4.2
				c0-6.7,0-13.5,0.1-20.2c1.3-1,2.8-0.8,4.2-0.7c10.4,0.7,20.8,0.6,31.2,0.7c0,0.4-0.4,1.3-0.4,1.8c-0.6,0.4-0.3,0.5-0.2,1.1
				c-1.5,2.9-4.1,3.6-7.1,3.6c-4.6-0.1-9.3,0-14,0c-0.8,3.2-0.6,5.9-0.1,9.1c6.9,0,13.6,0,20.3,0
				C124.1,133.8,125.7,133.5,127.2,134.4L127.2,134.4z"/>
			<path class="st6" d="M83.5,118.2c-3.5,7.2-9.4,10.7-17.2,11.4c-1.4,0.1-2.9,0-4.3,0.6c0.9-3.6,4.3-0.4,6.2-2.6
				c-5.4-1.9-11,0-16.2-1.8c-0.8,0.8-1.7,1.7-2.5,2.6c-0.2-3.8-0.3-7.6,0.2-11.8c4.5,0,8.8,0,13,0c1.7,0.6,4.3,1,5,0
				c1.5,0.1,2.9,0.2,4.4,0.2C76,116.9,79.9,116.3,83.5,118.2L83.5,118.2z"/>
			<path class="st7" d="M287.1,34.4c1.3,2.9,2.9,5.7,5,8.2c4.8,5.9,11.4,7.7,18.3,6.2c6.6-1.4,11.1-6.2,12.7-13
				c1-4.2-0.5-8.3-1.1-12.4c0.2-0.3,0.5-0.5,0.7-0.8c2.4,7.2,3.3,14.1-1,21.3c-1.7,2.8,0.5,6.3,2.9,8.8c0.8,0.9,2.2,1.4,1,3.2
				c-4.1-1-4.4-6.6-10-7c-1.9,0.3-3.9,2.5-5.3,5c-1.4,2.4,0.9,5.3,0.1,8.4c-2.4-1-2.5-3-2.3-4.6c0.4-4.1-1.1-6.1-5.4-6.6
				c-3.9-0.4-7-2.9-9.9-5.4c-1.4,0.2-1.6,1.2-2.6,2.1c-0.3-0.3-0.6-0.6-0.9-1c1.8-1.6,2.4-3.3,0-5c-1.5-1.3-0.9-4.3-3.8-4.5
				c-6.4,2.5-12.8,5-19,8.5c1.4,2.1,2.5,3.9,3.6,5.6c0.8,2.9,2.1,5.6,3.7,8.4c4.6-2.5,8.1-6,11.9-9.2c0.3,0.3,0.5,0.5,0.8,0.8
				c-3.2,4.9-5.9,8.2-12.8,11.7c-3.5-1.9-4.2-5.8-5.8-8.9c-0.5-1.1-1.1-2.1-1.9-3l0.1,0.1c0-0.3,0.2-0.8,0-1
				c-3.2-5.8-3.2-5.9,2.9-8.7c5.4-2.5,10.6-5.3,16.6-6.1c0.3,0,0.5-0.7,0.8-1.1h0.3L287.1,34.4L287.1,34.4z M319.7,46.4L319.7,46.4
				c-0.1-0.3-0.2-0.5-0.3-0.6c-0.2,0.1-0.4,0.2-0.5,0.4c-0.1,0.1,0,0.3,0,0.5C319.2,46.6,319.4,46.6,319.7,46.4L319.7,46.4z"/>
			<path class="st8" d="M247.3,76.8c8.8-2,17.6-3.4,26.6-4c3.7-0.2,6.7-2.7,10.4-3.2c1.1-0.1,1.2-1.6,1.5-2.8c0.6-3,0.7-6.1,0.7-9.2
				c0-1.9,0-3.9,2.6-5.5c-0.6,5.4-1,10.3-1.8,15c-0.5,3.1,1.6,4,3.5,4.8c1.4,0.6,3.6,1.1,4.4-1.5c-1.7-0.9-3.2,1-4.8-0.2
				c1.1-2.2,3.5-0.6,5-2.1c0-6,0-12.3,0-18.5c2.4,6,2.1,12.3,2.3,18.5c0.1,2.9,1.2,3.9,3.7,4.3c7.3,0.9,14.7,1.6,21.9,3.4
				c1.3,0.3,2.5,0.7,3.7,1.5c-6.1-0.5-12.2-1.1-18.3-1.6c-18.3-1.4-36.5-0.5-54.7,1.4c-1.7,0.2-3.5,0.2-5.2,0.3
				C248.3,77.3,247.8,77,247.3,76.8z M287.8,71.9L287.8,71.9c-0.7-1.1-1.3-1.5-2.2-0.3C286.3,72.6,287,72.3,287.8,71.9z M284.1,71.8
				L284.1,71.8c-0.9-1-1.8-0.5-2.7,0C282.4,72.5,283.2,72.5,284.1,71.8z"/>
			<path class="st9" d="M212.4,144.8c-0.4-1.9-1.4-3.8-0.7-5.9c1.4-3.3,4.1-2.9,6.9-2.8c3.1,0.2,6.5,0.9,9.3-1.5
				c0.7-0.1,1.5-0.1,2.2-0.2c5.4,1.5,8.8,5,10.3,10.3C231.1,148,221.7,148.6,212.4,144.8L212.4,144.8L212.4,144.8z"/>
			<path class="st10" d="M230.2,134.5c-0.7,0.1-1.5,0.1-2.2,0.2c-3.2,0.1-5-0.8-3.9-4.6c0.4-1.5-0.3-3-1.2-4.2
				c-1.5,0.7-0.1,2.7-1.8,3c-1.1-1,0.1-2.9-1.7-3.6c-1.8,0.4-3.8,2.4-5.4-0.8c-0.6-1.1-1.5,0.7-2.3,1.1c0-2.5,0-4.9,0-7.4
				c9.2-0.3,18.4,0.3,27.5-0.8c2.2-0.3,4.4-0.2,6.5,0.8c0.4,1,1.8,1.5,1.6,2.8c-2.5,0.4-1,2.7-1.9,4c-1,0.5-2-1.5-3.2,0
				c-0.8,1-1.3,2.6-3.2,1.8c-1.1-0.8,1.3-1.7,0-2.5c-1.5-0.3-2.9-0.3-3.7,1.4c-1-0.4-2-1.1-3-1.1c-2.4-0.1-5.9-1.6-7,1
				c-1,2.1-2,5.4,0.7,7.8C227.3,133.9,228.9,133.5,230.2,134.5L230.2,134.5z"/>
			<path class="st0" d="M185.9,95.9c7.1-0.3,14.3,1,21.3-1.5h0.1c0,5.5,0,11,0,16.5c-4.2,0.2-8,1.2-11.6-0.8c-1-2.7,0.8-5.7-1.2-8.2
				c-2.9,0-5.8,0-8.7,0C185.8,99.9,185.9,97.9,185.9,95.9L185.9,95.9z"/>
			<path class="st3" d="M124.1,118.2c-10.4-0.2-20.8,0-31.2-0.7c-1.4-0.1-3-0.3-4.2,0.7c0-1.5,0-3,0-4.5c4.4,0.1,8.7-1.2,13.6-0.4
				c-1.1-2.1-1.1-3.8-1.1-5.5c0-0.5,0-0.9,0.1-1.4c0.2,0,0.4,0,0.6-0.1c0.1,1.3,0.3,2.7,0.4,4.2c4.9,1.5,9.8,0.6,14.7,0.8
				C121.7,111.6,123.8,113.5,124.1,118.2L124.1,118.2z"/>
			<path class="st11" d="M245.7,118.2c-2.4,0-4.1-0.3-6.3,0c-9.9,0.4-18.5-0.3-27.7,0c0-1.5,0-3,0-4.5c1.8,0.1,3.4-2.5,5.1-0.3
				c1-0.6,0.4-1.9,1.5-2.2c3.8,1.9,4.3,2.1,6.4,2c-0.8-2.3-0.4-4.6-0.6-6.9c0-1,0-2,0-2.9c0.5-4.6,0.2-9.1-2.1-13.3
				c2.3,1.3,3,3.4,3,5.8c0,4.8,0,9.5,0,14.7C232.9,110.9,240.6,111.2,245.7,118.2L245.7,118.2z"/>
			<path class="st12" d="M29.3,18.1c0.7-0.5,1.4-0.9,2.2-1.4c2.6-1.6,4.4-1.5,5.6,1.8c2.7,7.4,2.9,14.9,1.9,22.6
				c0,0.1-0.2,0.3-0.2,0.3c-0.2,0-0.3-0.1-0.5-0.2c-0.5-6.4-0.8-12.9-3-19.1c-0.1-1.3-0.2-2.6-1.4-3.5c-2.2,0.8-4.2,1.7-6,3.2
				c-2.5,1-5,1.9-7.6,2.9c0.1,4,2.6,6.9,4.4,10c1.7,3,4.4,5.4,4.9,9.3c-5-0.5-13.4-17.3-11.3-22c-3.5-3-7.4-5.5-10.5-9.1
				c-2.7,1.9-3.4,5.7-7.8,6.4c1.2-3.9,4.2-5.6,6.3-7.9c0.8-0.9,2.2,0.1,3.2,1c2.5,2.2,5.3,4.1,7.5,6.5c3,3.3,6,2.6,9.3,0.8
				C27.6,19.7,28.8,19.5,29.3,18.1z"/>
			<path class="st13" d="M235.3,125.7c0.8-1.7,2.2-1.8,3.7-1.4c1.3,0.9-1.1,1.7,0,2.5c1.8,0.8,2.4-0.8,3.2-1.8
				c1.1-1.5,2.2,0.5,3.2,0c0.9-1.3-0.6-3.6,1.9-4l0,0c0,0.7,0.1,1.3,1,1.5c0.2,0.5,0.4,1,0.7,1.5c0.6,3.5,0.9,7,0,10.5
				c-1.1,3.8-3.6,6.5-6.7,8.8c-2.2-4.2-4.5-8.4-9.4-10C236.4,132,236.9,130.4,235.3,125.7L235.3,125.7z"/>
			<path class="st14" d="M218.9,70c2.1,5.8,0.8,11.3-1.7,16.7c-6,3.4-11.8,3.4-17.4-0.9c0.7-2.3,2.2-3.5,4.6-4.1
				c5.4-1.3,9.2-5.7,9.4-10.6c0.1-2.1-0.4-4.1-0.6-6.2c2.1,0.6,3.8,1.6,4.9,3.6C218.4,69.1,218.7,69.5,218.9,70z"/>
			<path class="st11" d="M258.6,88.8c1.4,0.3,3.8,0.9,4.7,3.2c1.2,3.3,1.1,6.1,1,9.9c-1.4,1,0,2.9-1.5,4.2c-1-1.1-2.1-2.3-3.6-1.1
				c-2.4,1.9-4.8,1.3-7.1,0.1c-1.1-2.7,0.5-5.7-1-8.3c0-0.8,0.1-1.5,0.1-2.3c0.6-0.3,0.6-0.9,0.6-1.5c0.7-2.6,3.2-3.9,4.9-4.2
				C257.7,88.8,257.4,88.3,258.6,88.8L258.6,88.8z"/>
			<path class="st15" d="M42,132.9c1.5,1.1,2.3,2.8,3.3,4.4c1.7,2.9,0.9,6.4-1.7,8.5c-2.6,2-6.3,1.8-8.6-0.9
				c-2.6-3.1-4.8-6.4-7.2-9.7c1.6-3.5,4.6-3.2,7.6-2.5c2.2,0.5,4,0.3,5.7-1.1l0.1,0.1C41.1,132.2,41.3,132.7,42,132.9L42,132.9z"/>
			<path class="st16" d="M136,143.4c-2.2-3.7-1.1-7.7-1.1-11.5c0-4.5,0.3-7.8,0.5-13.6c4.1,0,8.2,0,12,0c0.1,2.6,0.2,3.6,0.1,5.8
				c-0.2,2.7,0.6,4,0.5,6.7c-3.9,3.1-7.7,2.1-11.9-1.5C136,134.8,136,139.1,136,143.4L136,143.4z"/>
			<path class="st17" d="M278.5,89.9c2.6,0.9,3.5,2.9,3.5,5.4c0.1,3.2,0,6.4,0,9.6c-2.2,1.6-4.8-0.3-6.6,0.3
				c-3.8,1.2-4.8-0.5-5.8-3.3c0-2.9-0.6-5.8,0.3-8.6c0.4-1.3,0.7-2.9,2.5-3.3C274.4,89.9,276.4,89.9,278.5,89.9z"/>
			<path class="st18" d="M35.2,22.1c2.2,6.2,2.5,12.6,3,19.1c-0.5,0-1-0.1-1.5,0.1c-5.3,1.9-5,1.8-7.3-3.3
				c-2.4-5.2-3.2-10.2-0.9-15.5C30.7,21.1,32.9,20.7,35.2,22.1z"/>
			<path class="st17" d="M309.5,93.1c1-2.2,3.1-3.1,4.8-4.5c1.2-0.3,1.5-0.1,2.5,0.3c2.8,1.2,5.2,2.8,5.3,6.3c0,3.2,0,6.4,0,9.6
				c-2.5-0.3-5.5-1.5-7.5-0.6c-3.2,1.3-4.1,0.1-5-2.3C309.5,98.9,309.5,96,309.5,93.1z"/>
			<path class="st19" d="M133.1,81.7c0.3-6.8,1.7-13.3,3.4-19.8c1,0.6,1.8-0.2,2.6-0.5c2.1-0.7,3.7,0.4,3.9,2.2
				c0.7,6.4,2.2,13-3.4,18.3c-1.5,0.1-3.1,0.1-4.6,0.2C134.5,81.9,133.8,81.8,133.1,81.7L133.1,81.7z"/>
			<path class="st11" d="M222,90.1c2.3,4.2,2.6,8.6,2.1,13.3c-0.7,0.5-1,1.8-2.3,0.6c-1.4-1.2-3.1-0.9-4.5-0.1
				c-2.9,1.8-4.5,0.6-5.7-2.1c-0.4-4-0.3-7.9,1.4-11.6c1.5-1.1,2.7-1.7,4.4-1.7C219.7,88.8,220,89,222,90.1z"/>
			<path class="st20" d="M136,143.4c0-4.3,0-8.6,0-14.1c4.2,3.6,8,4.5,11.9,1.5c0,0.5,0,0.9,0,1.4c0,2.8,0,5.6,0,8.4
				c-0.2,3.1-1.3,5.4-4.7,6C140.1,147.2,137.6,146.5,136,143.4L136,143.4z"/>
			<path class="st17" d="M290.1,92.8c1.1-3.2,3.6-4.5,6.5-3.9c3,0.6,5.2,2.7,5.4,6c0.2,2.8,0,5.6,0.1,8.4c-3.4-0.2-7-1.4-9.8,1.2
				c-1.5-0.6-1.8-1.9-2.7-2.7c0-0.5,0-1,0-1.5c0.9-1,0.9-2,0-3C289.7,95.9,289.9,94.4,290.1,92.8z"/>
			<path class="st21" d="M146.4,56.5c-11.1,2.3-20.3-2.4-25-12.6c-1.3-2.7-3-4.8-6.5-4.8c-1.9,0-4.3,0-4.9-2.6
				c0.8-0.8,1.6-0.8,2.3-0.5c5.8,2.3,7.6,0.3,10.2-5.3c2.3-5,5.9-8.3,11.2-9.7c0.3,0.3,0.6,0.5,0.9,0.8c-6.3,2.9-10.5,7.2-11.3,14.6
				c-0.8,7.3,4.8,15.9,11.5,17.7c1.2,0.3,2.3,0.7,3.5,1.1C140.7,57,143.8,55.3,146.4,56.5z"/>
			<path class="st1" d="M302,126.3c-3.8,3-9.2,7.6-13.4,7.4c0-3.9,0.1-14.8,0.1-18.9c4.5,0.2,9.3-0.2,13.1-0.8
				C302.2,117.7,302.3,122.6,302,126.3z"/>
			<path class="st22" d="M195.2,142.8c-1.4-3.3-0.4-6.8-0.6-10.2c-0.2-2.8,0-5.7,0-8.5c4.2,1.4,8.4-0.5,12.5,0c0,3.2,0,6.4,0,9.6
				c-1.9-0.1-2.6,2.5-4.4,2.2c-2.6-0.5-4.6-0.3-4.4,2.9c-2.1,0-0.3-2.6-2.4-2.5C194.8,138.3,195.7,140.7,195.2,142.8L195.2,142.8z"
				/>
			<path class="st1" d="M282.1,128.5c-3.4-0.2-6.9-0.4-10.3-0.7c-1.6-0.1-1.4,1.5-2.1,2.2c0-4.4,0-8.7,0-13.2
				c4.4-0.2,8.3-1.2,12.4-0.9C282.3,120.2,282.1,124.2,282.1,128.5L282.1,128.5z"/>
			<path class="st15" d="M41.1,131.6c-1.7,1.5-3.6,1.7-5.7,1.1c-2.9-0.7-5.9-1.1-7.6,2.5c-1.5-1.9-3-3.8-4.5-5.7
				c0.7-1,2-1.5,2.3-2.8c2.7-2.8,3.7-6.2,3.9-10c0.2,0,0.3,0,0.4-0.1C33.9,121.5,37.7,126.3,41.1,131.6L41.1,131.6z"/>
			<path class="st0" d="M207.2,133.7c0-3.2,0-6.4,0-9.6c-0.1-1.9,0.5-3.8-0.6-5.9c-3.9,0-7.9,0-11.9,0c-0.1-5.4-0.1-10.9-0.2-16.3
				c1.9,2.5,0.2,5.5,1.2,8.2c3.6,2,7.4,1,11.6,0.8c0-5.5,0-11,0-16.5c0.9,0.7,0.8,1.8,0.7,2.7c-0.5,13.3,0.8,26.6,0.7,39.9
				c0,2.2-0.1,4.4-1.4,6.3c0-1.5,0-3,0-4.5c0-0.5,0-1,0-1.5C207.2,136.2,207.2,135,207.2,133.7L207.2,133.7z"/>
			<path d="M187.2,198.6c0.4,2.5,0.8,5,0.6,7.6c-0.2,2.8-1.1,4.1-4.1,3.2c-0.4,0-0.9,0-1.3,0c-5.3-0.5-10.6,0.3-15.9-1.1
				c-0.2-7.8,1.6-14.9,2.7-22.1c0.9,6.7-0.8,13.4,0.2,20.4c4.2-0.8,8.3,0.2,12.4,0.2c1,0.2,2.1,0.6,3-0.4c0.5-4.7-1.9-8.9-2.2-13.4
				c0.3-0.8-0.2-1.7,0.7-2.3C185.4,193.1,186.1,196,187.2,198.6L187.2,198.6z"/>
			<path class="st23" d="M21.9,104.1c2.4-2.3,5.8-5.7,8.2-8c-0.3,3.1,1.1,3.3,3.3,1.6c0.4,2.1,1.2,3.6,3.2,2.3
				c2.7-1.8,5-1.1,7.4,0.4c-1.7,2.3-3.8,4.1-5.9,5.9c-3.7-0.5-7.5,3.4-10.8,4c-1.5-2.3-2.7-3.7-5-5.3
				C22.4,104.8,22,104.2,21.9,104.1z"/>
			<path class="st4" d="M62.8,116.6c-4.3,0-8.6,0-13,0c-0.5,4.3-0.4,8.1-0.2,11.8c0,3,0,5.9,0,8.9c-0.1,1.5-0.2,3-0.3,4.5
				c-0.9-0.8-0.6-1.8-0.6-2.8c0-14.3,0-28.5,0-42.8c0-1.3-0.6-2.8,1.3-3.4c0,0.5,0,1,0,1.6c-1.3,3.7-0.7,7.5-0.4,11.2
				c0.3,3.4,2.7,4.8,5.7,3.4c2.3-1.1,4.4-1.2,6.7-1.2C62.5,110.7,61.4,113.8,62.8,116.6z"/>
			<path class="st24" d="M185.7,147.1c4.6,2.8,8.1,6.8,9.4,11.9c1.3,4.9,3.9,6.9,8.7,7c0.9,0,2.3-0.5,2.9,1.3
				c-2.9,1.9-5.8-0.2-8.3-0.2c-7.6,6-4.4,10.7,2.3,15.1c-2.8,0.8-4.1-0.6-5.1-1.8c-2.7-2.9-5.3-2.7-8.5-0.6c-3,2-6.5,2.8-10.2,2.1
				c0-0.4,0-0.8,0-1.3c6.8-0.1,13.4-4.4,15.9-10.4c2.9-7.1,1.4-13.6-4.4-19c-1.2-1.1-2.3-2.1-3.5-3.2
				C185.1,147.7,185.4,147.4,185.7,147.1L185.7,147.1z"/>
			<path class="st25" d="M60,67.7c2.8-6.9,0-12-4.5-17.6c-3.8-4.8-13.5-6.7-19.9-3.5c-2.8,1.3-5.4,2.9-7.7,4.9c-0.4,0-0.8,0-1.1-0.1
				c5.5-7.6,18.6-11.9,27.8-5.3c2,1.4,4,1.2,6-0.1c3.8-2.6,3.9-2.6,6.9-2.2c-1.1,2.9-4.5,2.4-6.2,4.7c0.3,3.1-0.6,6.5,0.5,10.1
				c1,3.3,0.4,6.8-1.5,9.9C59.9,68.6,60.5,68.6,60,67.7z"/>
			<path class="st6" d="M49.5,137.3c0-3,0-5.9,0-8.9c0.8-0.9,1.7-1.7,2.5-2.6c5.2,1.8,10.8-0.1,16.2,1.8c-1.8,2.2-5.3-1-6.2,2.6
				c0,2.1-0.1,4.3-0.1,6.5c-0.9-0.1-1.9-0.3-2.8-0.3C55.9,136.6,52.6,136.1,49.5,137.3z"/>
			<path class="st26" d="M211.7,125.6c0.8-0.4,1.7-2.2,2.3-1.1c1.6,3.1,3.7,1.2,5.4,0.8c1.8,0.8,0.6,2.7,1.7,3.6
				c1.8-0.3,0.3-2.3,1.8-3c1,1.2,1.7,2.7,1.2,4.2c-1.1,3.7,0.7,4.7,3.9,4.6c-2.8,2.4-6.2,1.6-9.3,1.5c-2.9-0.1-5.6-0.5-6.9,2.8
				C211.3,134.4,211.4,130,211.7,125.6L211.7,125.6z"/>
			<path class="st27" d="M263.6,142.7c-1.1,3.1-3.6,4.4-6.6,4.1c-2.8-0.3-5-1.7-5.5-4.9c0-2.5,0.1-4.9,0.1-7.4c4,0,7.9,0,11.8,0
				C263.6,137.2,263.6,139.9,263.6,142.7z"/>
			<path class="st23" d="M44,100.3c-2.4-1.5-4.7-2.2-7.4-0.4c-2,1.3-2.8-0.2-3.2-2.3c-2.3,1.8-3.6,1.6-3.3-1.6
				c1.6-1.6,3.1-3.3,4.8-4.9c3.1-2.8,6.5-2.9,9-0.5C46.8,93.6,46.9,96.9,44,100.3z"/>
			<path class="st11" d="M263.6,142.7c0-2.7-0.1-5.5-0.1-8.2c0-5.8,0-11.7,0-17.4c-4.3,0-7.9,1.3-11.8,1.3c0,6,0,10.4,0,16.1
				c0,2.5-0.1,4.9-0.1,7.4c-1.4-1.5-0.5-3.4-0.8-5.1c0-6.7,0.1-13.4,0.1-20.1c0-3,0-5.9,0-8.9c1.1,0.6,0.3,2.2,1.8,3
				c3.2-0.3,6.7-0.8,10.1,0c0.5-1.3,0.9-2.1,1.3-3c0.1,10.8,0.1,21.7,0.2,32.5C264.4,141.2,264.4,142.1,263.6,142.7L263.6,142.7z"/>
			<path class="st17" d="M288.8,97.6c0-1.7-0.6-4.6,2.4-6.9c-0.2,1.5-1.5,5.2-1.7,6.8c0,1,0,2,0,3c0,0.5,0,1,0,1.5
				c-0.1,6.1-0.1,5.8,6,6.3c2.3,0.2,4.3-0.9,6.5-0.4c0,2.3-0.1,4.5-0.1,6.7c-5.6,0.8-10.4,0.8-13.2,0.7L288.8,97.6L288.8,97.6z"/>
			<path class="st28" d="M208.6,137.1c0,1.5-1.4,4.8-1.4,6.3c-2.6,3.8-4.1,4.2-9.5,2.8c-0.1-0.9-0.6-1.4-1.5-1.4
				c-0.3-0.6-0.6-1.3-0.9-2c0.5-2.1-0.5-4.5,0.7-6.5c2.1,0,0.2,2.5,2.4,2.5c-0.1-3.3,1.8-3.4,4.4-2.9c1.9,0.4,3.7-3.1,5.6-3
				L208.6,137.1L208.6,137.1z M202.5,138L202.5,138c-0.2-0.1-0.5-0.3-0.6-0.2s-0.3,0.4-0.3,0.6c0.1,0.1,0.4,0.3,0.6,0.3
				C202.3,138.5,202.4,138.2,202.5,138L202.5,138z"/>
			<path class="st6" d="M49.5,137.3c3.1-1.2,6.4-0.7,9.6-0.9c0.9-0.1,1.9,0.2,2.8,0.3c0.3,1.9,0.4,3.9-0.3,5.8c-1,2.7-3,4.6-6,4.6
				c-3.3,0-5.8-1.7-6.5-5.2C49.3,140.3,49.4,138.8,49.5,137.3z"/>
			<path class="st23" d="M5.6,107.8c0-2.5,0-4.9,0-7.4c1.2,0.5,0.3,2.2,1.3,2.6c2,0.2,1.2-2.2,2.7-2.3c3.8-0.3,3.9-4,5.7-6.1
				c1.6-0.3,1.2-1.2,0.5-2.1c-0.6-0.9-1.7-1.5-1.3-2.9c3.2,0.5,3.7,3.1,4.1,5.6c0.2,1.4,0.2,2.9,0.2,4.4c-0.2,0.8-0.5,1.6-0.7,2.4
				C14.7,105.6,11.4,109.2,5.6,107.8z"/>
			<path class="st17" d="M268.8,138c-0.2-10.6,0.2-21.1,0.8-31.7c1.2,1.1,0.1,2.9,1.1,4c4,0.8,7.7,0,11.4-1.1c0,2.2,0,4.5-0.1,6.7
				c-4.6,0.8-8,0.7-12.4,0.9c0,4.5,0,8.8,0,13.2L268.8,138L268.8,138z"/>
			<path class="st29" d="M182.7,193.1c0.4,4.5,2.7,8.7,2.2,13.4c-0.9,1-1.9,0.6-3,0.4c-0.4-0.7-0.7-1.5-1.3-2.2
				c-4.1-4.8-2.7-10.6-2.6-16.1c0-1.2,0.9-2.3,2.3-2.6C181.1,188.3,181.9,190.7,182.7,193.1L182.7,193.1z"/>
			<path class="st17" d="M322.1,108.5C322.5,108.6,321.7,108.3,322.1,108.5c-0.2,0.3,0.2,1.2,0,1.5c-0.2,2.5,0.3,3-0.1,4.5
				c-4,0.9-8.2,0.6-12.6,0.9c0,2.9,0,5.4,0,7.9c-0.4-0.5,0.1-1.1-0.3-1.6c0.5-2.4-0.1-4-0.3-6.5c-0.2-3.9-0.2-8.6,0-12.4
				c0.1-3.2-0.7-6.6,0.7-9.7c0,2.9,0,5.8,0,8.7c0,1.6,0,3.2,0,4.8c0,1.2,0.3,2.4,1.6,2.5C314.8,109.2,318.6,110.5,322.1,108.5
				L322.1,108.5z"/>
			<path class="st0" d="M147.5,123.2c-1-1.1,0-2.8-0.2-5c-3.8,0-7.9,0-12,0c-0.4-6.2-0.1-10.6-0.1-18.6c0,3.2,0.1,6.4,0.1,9.6
				c0,2,0.9,2.5,2.9,2.8c3.3,0.6,6.5-1.5,9.6,0.2C147.7,115.7,147,119.4,147.5,123.2L147.5,123.2z"/>
			<path class="st15" d="M18.2,142.6c-0.8,3.3-3.4,4.5-6.3,4.4c-2.7,0-5-1.3-5.6-4.3c0.3-1.3-0.3-2.7,0.5-4c2.9,0.5,5.7,0.5,8.1-1.2
				C17.1,138.6,18.8,139.9,18.2,142.6z"/>
			<path class="st30" d="M165.7,124.9c-0.7,1.5-1.9,2.6-3.4,3.1c-2.9,1-3.4,3.2-2.9,5.9c0.8,4.5,1.2,9,2.7,13.3
				c0.1,0.4-0.1,0.9-0.2,1.4c-1.1,0.1-1.4-1-2.2-1.4c-1.2-5.5-2.7-10.9-2.9-16.2c-2.2-1.1-4.8-0.6-6-2.9c1.6-1.5,2.8,1,4.2,0
				c0.1-1.9-2.7-1.9-2.6-3.8c0-0.3,0-0.6,0.1-0.9c5.6,4.3,6.6,4.4,12.5,0.9C165.2,124.3,165.5,124.6,165.7,124.9L165.7,124.9z"/>
			<path class="st15" d="M5.7,128.8c4.4,1.3,8.7,2.9,13.1,1.7c-0.2,3.5,0.8,8.7-0.6,12.1c0.6-2.7-1.1-3.9-3.4-5.1
				c-2.4,1.7-5.2,1.7-8.1,1.2c-0.8,1.3-0.2,2.7-0.5,4C4.9,139.2,5.8,132.3,5.7,128.8z"/>
			<path class="st31" d="M14.5,89.5c0.3,1.6,0.7,2,1.3,2.9s1.1,1.8-0.5,2.1c-2.1-1-1.8-5.8-5.9-3.6c-0.3-0.3-0.6-0.6-1-1
				c0.2-3-2.7-0.4-3.4-2.1c1.6-2.1,4-1,6.2-1c0.9-1.2,2.4-2.8,3.2-4.8c2.6-4.1,3.8-7.6,6.5-11.8c2.1,1.8,1,2.8,0.2,3.9
				c-2.6,3.4-4.2,7.4-6.4,11.1C13.9,86.6,14.1,88.1,14.5,89.5z"/>
			<path class="st32" d="M194.7,118.2c4,0,9.4,0,13.3,0c0,3.3,0.3,5.9,0.3,7.8c-4.2-0.5-9.5-0.5-13.7-1.9
				C194.6,122.1,194.7,120.2,194.7,118.2z"/>
			<path class="st33" d="M70.4,90c0.4,0.9,1.9,1.4,1,2.9c-2-0.1-2.5-3.3-4.7-2.6c-1.8,0.5-1.9,3.4-4.4,3.4c-0.1-2.3,2.6-2.8,2.4-4.9
				c1.2-4-1.4-7.2-2.5-10.7c-0.6-1.9-1.7-3.8-2.5-5.6c0.3-0.9-1.1-2.4,1-2.5c3.1,5.4,5.3,11.1,7.1,16.8c2.3,0.4,4.6-0.4,6.3,1.5
				c-0.8,1.5-1.6,0.6-2.4,0.6c-0.7-0.2-1.4-0.3-1.8,0.3C69.5,89.5,69.9,89.9,70.4,90L70.4,90L70.4,90z"/>
			<path class="st4" d="M85.7,107.8c1.4,1.8-0.2,3.5-0.2,5.2c-0.7,0.2-1.4,0.6-2.1,0.7c-3.7,0.7-7.2-2.6-11-0.7
				c-0.1-0.2-0.1-0.5-0.2-0.7c0-1.9-0.1-3.9-0.1-5.8c1.1,0,2,0.1,3.1,0.6C78.6,108.4,82.1,109.8,85.7,107.8z"/>
			<path class="st11" d="M264.2,107.8c-0.4,0.9-0.8,1.7-1.3,3c-3.4-0.8-6.9-0.3-10.1,0c-1.5-0.8-0.8-2.3-1.8-3
				c-0.2-3.7-0.4-7.4,0-11.1c1.5,2.6,0,5.6,1,8.3c2.4,1.2,4.7,1.8,7.1-0.1c1.5-1.1,2.7,0,3.6,1.1c1.4-1.3,0.1-3.2,1.5-4.2
				C264.2,103.8,264.2,105.8,264.2,107.8L264.2,107.8z"/>
			<path class="st3" d="M101.2,107.8c0,1.7,0,3.4,1.1,5.5c-4.9-0.8-9.2,0.6-13.6,0.4c0-3,0-5.9,0-8.9c1,0.7,0.3,2.2,1.7,2.9
				C93.8,107.1,97.5,110.1,101.2,107.8z"/>
			<path class="st34" d="M23.2,66.3c2.2,9,4.8,11.1,18.4,13.7c-2.9,0.6-5.2,0.9-7.5,0.2c-3.6-1-5.5,0.6-6.8,3.7
				c-0.7,1.6-1,3.5-2.4,4.6c-1-0.4-1.1-1.3-0.9-1.7c3.5-6.2,0.8-11.8-1.3-17.6c-0.1-0.6-0.1-1.3-0.1-2.1
				C22.8,66.9,23,66.6,23.2,66.3L23.2,66.3z"/>
			<path class="st3" d="M101.2,107.8c-3.7,2.3-7.3-0.7-10.8,0c-1.4-0.7-0.7-2.3-1.7-2.9c0-3.2,0-6.4,0.1-9.6
				c1.4,2.3,0.1,4.9,0.8,7.4c2,0,3.9,2.1,6.4-0.4c1.3-1.3,3.1,2,5.2,1.8c0,0.8,0.1,1.5,0.1,2.3C101.2,106.8,101.2,107.3,101.2,107.8
				L101.2,107.8z"/>
			<path class="st11" d="M224.2,106.3c0.2,2.3-0.2,4.6,0.6,6.9c-2.2,0.1-2.7,0-6.4-2c-1.1,0.3-0.5,1.6-1.5,2.2
				c-1.7-2.2-3.3,0.4-5.1,0.3c0-2.2,0-4.4,0-6.7C215.9,107.9,220.1,109.1,224.2,106.3z"/>
			<path class="st4" d="M85.7,107.8c-3.6,2-7.1,0.7-10.4-0.8c-1.1-0.5-2-0.6-3.1-0.6l0,0c0-0.5,0-1,0-1.5l0.1-0.1
				c2.2,0,0.8-2.7,2.4-3.2c3.5,2.1,7.6,2.2,9.4,0.3C85.9,103.5,85.5,105.7,85.7,107.8z"/>
			<path class="st35" d="M157.6,28.5c4.3,6.3,8.9,2.4,13.5,0.1c0.8,2.2-0.5,3-1.6,3.4c-4.8,1.6-6.4,5.5-7.6,9.8
				c-0.4,1.3-1,2.5-1.5,3.8c-0.3-0.3-0.5-0.6-0.8-0.9c2.1-5.7,0.6-10.6-2.9-15.2C157,29.1,157.3,28.8,157.6,28.5L157.6,28.5z"/>
			<path class="st5" d="M113.9,88.2h0.4H113.9c-0.9-0.3-2.1,0.4-3.5,0.1c1.6-4.1-1.1-8-0.1-12.2c1.9,3,3,6.2,3.1,9.8
				c5-0.2,9.9,0.9,14.8,0.8C123.6,88.9,118.7,87.9,113.9,88.2z"/>
			<path class="st17" d="M282.1,109.3c-3.7,1.1-7.5,1.9-11.4,1.1c-1-1.1,0.2-2.9-1.1-4c0-1.5,0-3,0-4.5c1,2.7,2.1,4.5,5.8,3.3
				c1.8-0.6,4.4,1.3,6.6-0.3C282,106.3,282.1,107.8,282.1,109.3L282.1,109.3z"/>
			<path d="M179.7,123.5c4.4-0.7,8.1,0.9,10.9-2.4c0.1,3-2.5,3.3-4.3,4.9c0.6,6.1,1.2,12.4,0.8,18.8c-1.8,0.1-1.9-0.9-1.8-2.2
				c0.3-3.2-0.2-6.4-0.5-9.6C184.4,129.4,184.2,125.8,179.7,123.5L179.7,123.5z"/>
			<path class="st17" d="M302.1,107.8c-2.2-0.5-4.2,0.5-6.5,0.4c-6.1-0.5-6.1-0.2-6-6.3c0.9,0.8,1.2,2.2,2.7,2.7
				c2.9-2.6,6.4-1.4,9.8-1.2C302.1,104.8,302.1,106.3,302.1,107.8z"/>
			<path class="st4" d="M72.3,112.3c0.1,0.2,0.1,0.5,0.2,0.7c3.8-1.8,7.3,1.4,11,0.7c0.7-0.1,1.4-0.5,2.1-0.7
				c-0.7,2.3-1.5,3.4-2,5.2c-4.6-0.1-7.8-1-11.7-1.1c-1.5-0.1-2.9-0.2-4.4-0.2C68.9,115.4,70.8,113.7,72.3,112.3z"/>
			<path d="M230.9,163.4c-10.1,3-20.5-5.3-19.6-15.7c0.1-1-0.3-2.3,1.1-2.8h-0.1c0.6,0.5,0.8,1.1,0.8,2c0,7.7,3.9,12.7,11.1,15.2
				C226.2,163.8,229,161.6,230.9,163.4L230.9,163.4z"/>
			<path class="st36" d="M309.1,121.7c0.4,0.5-0.1,1.1,0.3,1.6c0.1,0.5,0.1,1,0.2,1.6c0.6,7.4,4.9,11.5,11.7,13.5
				c1.7,1.6,4.2,0.1,5.9,1.6c-2.1,0.5-3.5,0.7-5.3,0.7c-5.6-1.3-10.4-3.9-13-9.3C308,128.2,307.7,125.1,309.1,121.7L309.1,121.7z"/>
			<path class="st37" d="M29.3,18.1c-0.5,1.4-1.7,1.6-2.9,1.5c1.1-0.8,1.7-1.8,2.2-3.1c1.9-4.8,4.1-9.5,6.1-14.2
				c1-2.4,2.5-2.9,4.6-1.5c1.8,1.2,4.1,1.4,6.2,3.6c-3.4,0.8-5.6-1.3-8.4-1.8C34.5,7.7,31.5,12.7,29.3,18.1z"/>
			<path class="st7" d="M266.1,51.3c1,1.1,0.5,1.5-0.7,1.3c-5-0.7-10-1.4-15-2.1c-2-0.3-3-1.5-2.2-3.4c0.8-2.2-0.1-4.9,1.9-7.1
				c1.8,2.7,0.2,5.5,0.7,8.3c5.2,1,10.3,2,15.5,3H266.1L266.1,51.3z"/>
			<path class="st5" d="M186.4,108.2c-5.2-0.3-8.4,2.2-8.8,6.7c-0.4,4.8,2.5,7.6,8.5,8.3c-4.1,1.4-6.9,0.6-9.3-2.7
				c-2.1-3-2.1-7.4,0.1-10.3c2.3-3.1,6-4.1,10.1-2.6C186.8,107.7,186.6,107.9,186.4,108.2z"/>
			<path class="st24" d="M176.8,180.6c0,0.4,0,0.8,0,1.3c-7.3,0.3-13.7-1.7-18.4-7.6c-2.1-2.5-2.9-5.6-3.2-8.8
				c-0.1-1.4-0.7-2.8-1-4.3c0.1-0.2,0.2-0.4,0.4-0.6c0.9,0.8,2.2,1.1,2.1,2.7c-0.1,11,8.5,17.5,19.1,17.2
				C176.1,180.5,176.5,180.6,176.8,180.6L176.8,180.6z"/>
			<path class="st7" d="M265.7,60.3c-4.5,1.5-9.1,3-13.7,4.4c-2.2,0.7-3.9,0.4-4.2-2.4c-0.2-2.1-1.7-4-1.5-6.7
				c3.2,1.5,2.8,4.8,4.6,7.2c4.2-1.1,8.5-2.1,12.9-3.3c1.2-0.3,2.3-1.2,3.3,0.2C266.5,59.5,266,59.7,265.7,60.3z"/>
			<path d="M151.7,206.4c3.5,0.6,3.5,3.9,5.7,5.6c2.7-0.4,4.8-3.1,7.4-2.6c2.4,0.4,5.2-0.1,7.4,2c-5.3-0.7-10.1,0.4-14.6,3
				c-1,0.6-2,0.2-2.5-0.8C153.9,211.1,152.9,208.8,151.7,206.4L151.7,206.4z"/>
			<path class="st11" d="M224.2,106.3c-4,2.8-8.3,1.6-12.5,0.8c0-1.7,0-3.5,0-5.2c1.2,2.7,2.8,3.8,5.7,2.1c1.4-0.8,3.1-1.1,4.5,0.1
				c1.3,1.2,1.6-0.2,2.3-0.6C224.2,104.3,224.2,105.3,224.2,106.3z"/>
			<path class="st5" d="M152.4,123.2c0,0.3,0,0.6-0.1,0.9c-2.9-5.8-1.7-9.6,4.2-12.7c1.4,0,3.1-0.2,4.2,0c3.3,0.6,5.4,2.4,5.5,6
				l-0.3-0.1c-2.8-3.5-6-4.6-9.3-3.4C153.5,115.2,152.1,118.1,152.4,123.2L152.4,123.2z"/>
			<path d="M182.5,209.4c0.4,0,0.9,0,1.3,0c2.2,1.9,5,1.8,7.6,2.4c1.5,2.6-1,4.9-0.6,7.4c2.1,1.7,5.4,1,7.5,4.8
				c-3.6-1-6.4-1.6-9.1-2.5c-1.1-0.4-0.9-1.6-0.7-2.6c0.4-1.8,0.8-3.6,1.3-5.4c-2.2-0.7-4.3-1.3-6.4-2
				C182.4,211.1,181.6,210.7,182.5,209.4L182.5,209.4z"/>
			<path class="st36" d="M322.1,109.9c0.2-0.3-0.3-0.4-0.1-0.7c4.4-0.2,8.4,0.4,12.6,3.8c3.3,3.8,4.8,9.2,3.7,14.7
				c-0.2,0.1-0.5,0.1-0.7,0C338.4,116.5,333.9,111.4,322.1,109.9L322.1,109.9z"/>
			<path d="M232.7,133.4c4.9,1.6,7.3,5.8,9.4,10c0.2,2.7,0.5,5.4-0.2,8.1c-0.2,0.1-0.8,0.1-1,0c-0.2-2.2,0.4-3.7-0.5-6.7
				c-1.5-5.3-4.9-8.8-10.3-10.3c-1.3-0.9-2.9-0.6-4.2-1.1C228.2,131.9,230.5,133,232.7,133.4L232.7,133.4z"/>
			<path class="st23" d="M27.5,109.6c3.4-0.6,6.9-3.8,10.6-3.3c-2.1,2.2-4.1,4.5-6.3,6.6c-1.2,1.1-1.8,2.2-1.8,3.8
				c-0.1,0.1-0.3,0.1-0.4,0.1C29.5,114.2,28.5,112,27.5,109.6z"/>
			<path class="st38" d="M130.1,38.2c0,2.1-1.5,3.2-3.2,3.3c-1.6,0.1-2.7-1.4-2.6-3c0.1-2.3,1.9-3,3.8-3.2
				C130,35.2,130.1,36.8,130.1,38.2L130.1,38.2z"/>
			<path class="st39" d="M158,42.8c-1.6,0.8-2.9,0.7-4.5,0.1c-0.6-1.8-0.8-3.5,0.9-4.9c0.9-0.8,2.1-1,3-0.2
				C159,39.3,158.3,41.1,158,42.8z"/>
			<path class="st21" d="M148.7,47.1c-4.1,4.1-10.7,3.8-14.2-0.7c0.3-0.3,0.6-0.6,0.9-0.9c4.3,2.8,8.7,3.3,13.3,0.7
				C148.7,46.5,148.7,46.8,148.7,47.1z"/>
			<path class="st40" d="M53.4,57.9c-2.1-1.4-3.2-2.9-2.4-5.1c0.4-1,1.3-1.5,2.4-1.3c1.6,0.3,2.7,1.5,3.1,2.8
				C57.1,56.6,54.6,56.7,53.4,57.9z"/>
			<path class="st21" d="M159.6,44.6c0.3,0.3,0.5,0.6,0.8,0.9c-2.5,6.5-7.3,10-14,11c-2.6-1.2-5.6,0.6-8.1-1.3
				c6,0.8,11.6,0.4,16.6-3.8C157.2,49.5,158.1,46.9,159.6,44.6z"/>
			<path class="st7" d="M287.1,34.4h-0.3h-0.3c-3.6-8,1-14,5-20.2c1.5,1.2,0.9,2.3-0.2,3.5C286.8,22.5,285.7,28.2,287.1,34.4z"/>
			<path class="st41" d="M307.5,31.1c-0.2,2.3-1.4,3.2-3.4,3.3c-1.3,0-2.6-0.2-2.6-1.8c0-2,1.3-3.1,3.2-3.3
				C306.2,29.1,307.2,29.8,307.5,31.1z"/>
			<path class="st42" d="M187.2,198.6c-1.1-2.6-1.8-5.5-3.8-7.7c-0.2-1.2-0.5-2.4-0.7-3.6c1.1-0.9,2.2-1.5,2.8,0.3
				C186.7,191.2,188.4,194.7,187.2,198.6z"/>
			<path class="st7" d="M308.6,13.8c-4.4-1.5-8.8-1.3-13.2,0c0-0.6,0.1-1.2,0.1-1.8c4.8-1.5,9.5-1.3,14,0.9
				C309.1,13.3,308.8,13.5,308.6,13.8L308.6,13.8z"/>
			<path class="st24" d="M162,149.3c1.9-0.8,3.8-1.5,5.8-2.3c0.2-0.1,0.4,0.1,0.8,0.3c-1,1.6-2.9,1.6-4.3,2.6
				c-2.8,2-5.8,3.7-6.9,7.3c-0.2,0.6-0.8,1-1.4,0.4c0-0.5,0.1-1.1,0.1-1.6C157,152.7,160.1,151.5,162,149.3L162,149.3L162,149.3z"/>
			<path class="st43" d="M179.3,168c-1.6-1.6-2.2-3-1.4-5.1c1.5-0.5,3.2-0.9,3.9,1.1S181.2,167.2,179.3,168z"/>
			<path class="st7" d="M289.1,29.4c4.4,3,5.9,3.1,10.1-0.3c-0.8,3.1-2.7,4.3-5.3,4.3C291.4,33.3,289.5,32.1,289.1,29.4z"/>
			<path class="st21" d="M134.5,21.8c-0.3-0.3-0.6-0.5-0.9-0.8c4.6-1.7,8.6-2.3,13.1-1.7C142.6,19.5,138.6,20.7,134.5,21.8
				L134.5,21.8z"/>
			<path d="M230.9,163.4c-2-1.7-4.7,0.4-6.7-1.4c4.6,0.6,8.9-0.1,12.6-3c0.3,0.2,0.5,0.5,0.8,0.7
				C235.5,161.2,233.7,163.1,230.9,163.4z"/>
			<path class="st36" d="M327.2,139.9c-1.7-1.6-4.2,0.1-5.9-1.5c0.2-0.1,0.5,0.1,0.8,0c4.2,1.1,7.7-0.8,11-3.2
				c0.3,0.2,0.5,0.5,0.8,0.7C331.9,137.4,330,139.7,327.2,139.9L327.2,139.9z"/>
			<path class="st24" d="M185.7,147.1c-0.3,0.3-0.6,0.6-0.9,0.9c-2.4-1-4.9-2.1-7.3-3.1c0.2-0.9,1.1-0.6,1.7-0.9
				C182.3,144.9,183,144.9,185.7,147.1z"/>
			<path d="M182.7,187.3c0.2,1.2,0.5,2.4,0.7,3.6c-0.9,0.5-0.5,1.5-0.7,2.3c-0.8-2.4-1.6-4.8-2.4-7.2c0.1-0.8-0.4-1.6,0.5-2.3
				C181.4,184.9,182.1,186.1,182.7,187.3L182.7,187.3z"/>
			<path d="M237.6,159.6c-0.3-0.2-0.5-0.5-0.8-0.7c2.1-2.1,3-4.8,4.2-7.4c0.2,0.1,0.8,0.1,1,0C241.6,154.8,240.1,157.5,237.6,159.6
				L237.6,159.6z"/>
			<path class="st36" d="M333.9,135.9c-0.3-0.2-0.5-0.5-0.8-0.7c2-2.1,3.3-4.8,4.5-7.4c0.2,0.1,0.5,0.1,0.7,0
				C337.9,131,336.4,133.8,333.9,135.9L333.9,135.9z"/>
			<path class="st44" d="M170.3,170.9c-1.7,3-4.1,3.7-7.3,2.4c2.8-0.3,5.5-0.6,6.4-3.9C170.4,169.5,170,170.4,170.3,170.9
				L170.3,170.9z"/>
			<path class="st17" d="M280,90.6c-2,0-6.9,0-8.9,0C273.1,88.8,277.9,88.2,280,90.6z"/>
			<path class="st7" d="M289.4,46.8c0.3,0.3,0.6,0.6,0.9,1c-1,1.5-2.2,2.4-3.7,3.8c-0.3-0.3-0.5-0.5-0.8-0.8
				C287,49.4,288.2,48.1,289.4,46.8z"/>
			<path class="st35" d="M157.6,28.5c-0.3,0.3-0.6,0.6-0.9,0.9c-1.4-1.4-2.9-2.8-4.4-4.1C154.6,25.6,155.9,26.5,157.6,28.5
				L157.6,28.5z"/>
			<path class="st5" d="M166,117.3l0.3,0.1c2.1,2.6,0.8,5-0.5,7.5c-0.3-0.3-0.5-0.5-0.8-0.8C166.4,122,166.9,119.8,166,117.3z"/>
			<path d="M53.7,61.7C53.5,60,54,59,55.3,58.4C56.3,60.6,56.3,60.6,53.7,61.7z"/>
			<path class="st7" d="M322.7,22.6c-0.2,0.3-0.5,0.5-0.7,0.8c-0.7-2.2-1.5-3-2.2-4.5c0.2-0.2,0.5-0.5,0.7-0.7
				C321.6,19.7,322.2,21,322.7,22.6z"/>
			<path class="st35" d="M140.6,37c1.2-2.5,2.6-2.2,3.8-0.6C143.2,36.4,141.8,36.1,140.6,37z"/>
			<path class="st24" d="M179.2,143.9c-0.6,0.3-1.5,0-1.7,0.9c-1.4-0.4-2.8-0.2-4.5-1.4C175.4,143,177.3,143.1,179.2,143.9z"/>
			<path class="st16" d="M148,140.6c0-2.8,0-5.6,0-8.4C148.6,134.9,148,136.8,148,140.6z"/>
			<path class="st7" d="M295.4,12c0,0.6-0.1,1.2-0.1,1.8c-0.8-1.3-1.6-2.5-3.8-1.7C293.3,9.6,294.4,10.8,295.4,12z"/>
			<path class="st5" d="M159.6,83.2c0.1-0.8-0.4-1.8,0.6-2.4c0,2.4,3.1,1.6,3.6,3.8C162.3,84.1,161,83.6,159.6,83.2z"/>
			<path class="st19" d="M135.2,82c1.5-0.1,3.1-0.1,4.6-0.2C138.3,84.2,136.8,83.8,135.2,82z"/>
			<path class="st8" d="M247.3,76.8c0.5,0.2,1,0.5,1.5,0.7c-1.5,0-3.5,0.7-5.5,0.1C244.7,77.3,246,77.1,247.3,76.8L247.3,76.8z"/>
			<path class="st24" d="M170.3,170.9c-0.3-0.5,0.1-1.4-0.8-1.5c0-1,0-2,0-3.9C170.9,167.8,171.5,169.2,170.3,170.9L170.3,170.9z"/>
			<path class="st21" d="M135.6,45.7c-0.3,0.3-0.6,0.6-0.9,0.9c-1.3-1.5-2.2-3.1-2-5.5C133.8,42.9,134.4,44.2,135.6,45.7z"/>
			<path d="M43,70.3c1.5-1.4,2.3-2.2,3.2-3C46.7,69.3,46,70.1,43,70.3z"/>
			<path class="st24" d="M153.9,157.5c-0.9,1.2,0.1,2.1,0.6,3c-0.1,0.2-0.2,0.4-0.4,0.6c-1.3-1-2.3-2-1.4-3.8
				C153.1,157.4,153.5,157.5,153.9,157.5L153.9,157.5z"/>
			<path class="st21" d="M148.3,47.4c0-0.3-0.1-0.6-0.1-1c0.7-0.9,1.5-1.5,3-2.8C150.3,45.5,149.6,46.5,148.3,47.4L148.3,47.4z"/>
			<path class="st7" d="M320.5,18.2c-0.2,0.2-0.4,0.5-0.7,0.7c-0.7-1-1.4-2-2.1-3c0.3-0.3,0.5-0.5,0.7-0.8
				C319.4,16.3,319.6,17,320.5,18.2L320.5,18.2z"/>
			<path class="st24" d="M153.9,157.5c-0.4,0-0.8-0.1-1.2-0.1c0.6-1.8,2-1.5,3.3-1.4c0,0.5-0.1,1.1-0.1,1.6
				C155.3,157.6,154.6,157.6,153.9,157.5z"/>
			<path class="st7" d="M318.4,15c-0.2,0.3-0.5,0.5-0.7,0.8c-0.8-0.6-1-1-1.8-1.9C317.1,13.3,317.8,14.2,318.4,15L318.4,15z"/>
			<path class="st35" d="M154.6,36.4c-0.8,0.6-1.6,0.6-2.1-0.3c-0.4-0.6,0.1-1.2,0.8-1.3C154.4,34.6,154.7,35.4,154.6,36.4z"/>
			<path class="st7" d="M308.6,13.8c0.3-0.3,0.6-0.6,0.9-0.8c0.9,0.6,1.3,0.5,1.9,1.2C310.3,14.5,309.8,14.2,308.6,13.8L308.6,13.8z
				"/>
			<path class="st45" d="M186.4,108.2c0.2-0.2,0.4-0.5,0.7-0.7c1.1,0.3,2,0.9,2.5,1.9c-0.1,0.1-0.3,0.2-0.4,0.3
				C188.2,109.2,187.3,108.7,186.4,108.2z"/>
			<path class="st7" d="M303.9,25.4c-1.1-0.2-1.4-0.9-1-1.8c0.2-0.4,0.8-0.6,1.2-0.2C304.8,24,304.6,24.8,303.9,25.4z"/>
			<path class="st24" d="M171,160.1c-1.1,0.7-1.7,0.5-2-0.2c-0.1-0.2,0.1-0.8,0.3-0.9C170.3,158.5,170.7,159.2,171,160.1z"/>
			<path class="st30" d="M159.7,147.1c0.8,0.4,1.1,1.6,2.2,1.4c0.1,0.3,0.1,0.5,0.1,0.8l0.1-0.1C160.5,149.4,159.4,149,159.7,147.1
				L159.7,147.1z"/>
			<path class="st3" d="M101.2,106.3c0-0.8-0.1-1.5-0.1-2.3c0.1-0.6,0.1-1.2,0.8-1.5c0,1.2-0.1,2.5-0.1,3.7
				C101.6,106.3,101.4,106.3,101.2,106.3z"/>
			<path class="st45" d="M189.5,109.4c0.7,0.3,1,1,1.2,1.7c-1,0-1.2-0.8-1.6-1.4C189.3,109.7,189.4,109.5,189.5,109.4z"/>
			<path class="st46" d="M196.2,144.8c0.9,0,1.4,0.6,1.5,1.4C198.2,146.2,194.4,138.4,196.2,144.8z"/>
			<path class="st47" d="M251.7,93c0,0.6,0,1.1-0.6,1.5L251.7,93z"/>
			<path class="st48" d="M84.1,101.9c-0.6-0.3-0.7-0.9-0.7-1.6C84.2,100.6,84.1,101.3,84.1,101.9z"/>
			<path class="st49" d="M265.7,60.3c0.3-0.5,0.7-0.8,1.4-0.7C266.9,60.3,266.4,60.4,265.7,60.3z"/>
			<path class="st50" d="M42,132.9c-0.7-0.2-0.8-0.7-0.9-1.3L42,132.9z"/>
			<path class="st10" d="M248.2,122.6c-0.8-0.2-1-0.8-1-1.5C248.1,121.2,248.2,121.9,248.2,122.6z"/>
			<path class="st51" d="M18.9,131.5L18.9,131.5c0-0.3,0-0.5,0-0.8V131.5z"/>
			<path class="st52" d="M185.6,93.2c-0.5-0.4-0.6-1-0.5-1.7C185.6,91.9,185.7,92.5,185.6,93.2z"/>
			<path class="st4" d="M62,103.4c0,1.5,0,3,0,4.4c-2.3,0-4.4,0.1-6.7,1.2c-3,1.5-5.4,0-5.7-3.4c-0.3-3.7-0.9-7.5,0.4-11.2
				c0.6,3.3-1.1,7.2,2.5,10C55.4,102.6,58.8,103.5,62,103.4z"/>
			<path class="st4" d="M70.8,103.3c0.1-0.5,0.3-1.2,0.8-1c1.3,0.4,0.5,1.7,0.8,2.6l-0.1,0.1c-0.3,0-0.6,0.1-0.8,0.1l0,0
				C71.5,104.3,71.4,103.7,70.8,103.3z"/>
			<path class="st4" d="M70.8,103.3c0.6,0.4,0.8,1,0.6,1.7c-0.9-0.1-1.4-0.6-1.5-1.5C70.2,103.4,70.5,103.3,70.8,103.3z"/>
			<path class="st53" d="M270.2,51.5c-1.1-1.7-2.3-3.5-3.6-5.6c6.2-3.6,12.7-6,19-8.5c0.1,2.2,2.7,3.5,2.5,5.9
				C283.3,48.5,277.9,52.6,270.2,51.5z"/>
			<path class="st7" d="M319.7,46.5c-0.3,0.1-0.5,0.2-0.8,0.3c0-0.2-0.1-0.4,0-0.5c0.1-0.2,0.3-0.3,0.5-0.4
				C319.5,46,319.6,46.2,319.7,46.5L319.7,46.5z"/>
			<path class="st15" d="M18.9,130.8c0,0.3,0,0.5,0,0.8c-4.7,0.6-9.3,1.2-13.4-2c0-2.5,0.1-5.1,0.2-7.6c7-1.1,15.3-0.4,22.1,1.3
				c0.2,1.1-1.2,1.7-1.5,2.7c-1,1-2,2.6-3,3.6c-1-1-2.2-3.8-4.4-4.3C18.9,127.2,18.9,129,18.9,130.8z"/>
			<path class="st15" d="M27.8,123.2c-6.9-1.8-15.2-2.4-22.1-1.3c0-2.7,0.1-7,0.1-9.7c5.5,1,11,1.2,16.6,2.1c1.5,0.3,5,0.6,7.8,0.6
				C30,117.7,29.5,120.2,27.8,123.2z"/>
			<path class="st23" d="M28.1,113c-1.3,2.3-4.3,1.6-5.8,1.3c-5.5-0.9-11.1-2.7-16.6-2.8c0-0.5,0,1.2,0,0.7c2.6-1.6,5.1-5.4,8.1,1.6
				c0.7-4.2,2.6-5.8,5-6.9c0.1-0.1,0.1-0.4,0.1-0.7c1.6,0.1,1.9-1.4,2.9-2.1C25,106.4,27.5,109.2,28.1,113z"/>
			<path class="st23" d="M9.4,90.9c4-2.2,3.8,2.6,5.9,3.6c-1.9,2.1-1.9,5.9-5.7,6.1c-1.5,0.1-0.6,2.5-2.7,2.3
				c-1-0.3-0.1-2.1-1.3-2.6c-0.3-2.8-0.8-5.6,0.8-8.2C7.9,93,8.8,92.3,9.4,90.9z"/>
			<path class="st23" d="M19,106.3c0,0.2,0,0.6-0.1,0.7c-2.5,1,11.1,4.7,10.4,8.9c-5.4-1.1-21.5-2.1-23.5-3.6c0-1.5-0.1-2.9-0.1-4.4
				c5.8,1.4,9.1-2.2,12.5-5.9C18.4,103.3,18.7,104.8,19,106.3z"/>
			<path class="st54" d="M9.4,90.9c-1,1.3-1.5,2.1-3,1.3c-0.2-1.5,1-1,2-2.3C8.7,90.3,9.1,90.6,9.4,90.9z"/>
			<path class="st17" d="M322.1,108.5c-3.5,2.1-7.3,0.8-11,0.7c-1.3,0-1.6-1.3-1.6-2.5c0-1.6,0-3.2,0-4.8c0.9,2.5,1.8,3.7,5,2.3
				c2-0.9,5,0.4,7.5,0.6C322.1,106,322.1,107.3,322.1,108.5z"/>
			<path class="st17" d="M289.6,100.4c0-1,0-2,0-3C290.5,98.4,290.5,99.4,289.6,100.4z"/>
			<path class="st22" d="M207.2,138.9c-0.8-0.5-0.8-1,0-1.5C207.2,137.9,207.2,138.4,207.2,138.9z"/>
			<path class="st55" d="M250.8,139c0-0.8,0-1.7,0-2.6c0-5.9,0.3-13.8,0.3-19c4,0,8.9-0.3,13.1-0.3c0,5.8,0.1,18.7,0.1,24.6
				C260.4,141.6,254.8,139,250.8,139L250.8,139z"/>
			<path class="st22" d="M202.5,138c-0.1,0.2-0.1,0.5-0.3,0.6c-0.1,0.1-0.5-0.1-0.6-0.3c-0.1-0.1,0.1-0.5,0.3-0.6
				S202.3,137.9,202.5,138L202.5,138z"/>
			<path class="st1" d="M322,114.5c0,5.2-0.1,10.3-0.1,15.5c-1.4-1.6,0.2-3.9-1.3-5.7c-3.5,3.4-7.3-0.9-10.9,0.6
				c-0.1-0.5-0.1-1-0.2-1.6c0-2.5,0-4.9,0-7.9C313.8,115.1,318,115.3,322,114.5z"/>
			<path class="st4" d="M71.4,105c0.3,0,0.6-0.1,0.8-0.1c0,0.5,0,1,0,1.5C71.6,106.1,71.4,105.6,71.4,105z"/>
			<path class="st1" d="M309.7,124.9c3.6-1.5,7.5,2.7,10.9-0.6c1.6,1.9-0.1,4.1,1.3,5.7c0.1,2.7,0.2,5.7,0.2,8.4
				c-0.2,0.1-0.5-0.1-0.8,0C314.6,136.4,310.2,132.3,309.7,124.9L309.7,124.9z"/>
			<path class="st45" d="M201,79.8c-0.7-6.4,0.7-9.3,6-11.5C202.7,71.7,202.1,75.9,201,79.8z"/>
		</g>
		<path class="st40" d="M32.3,72.2c-2.2,1.2-4.1,1.5-5.6-0.3c-0.7-0.8-0.7-1.8,0-2.7c1-1.3,2.6-1.7,3.9-1.4
			C33,68.4,31.9,70.6,32.3,72.2z"/>
		<path d="M32.3,73.7c1.1-1.4,2.1-1.7,3.4-1.2C34.9,74.8,34.9,74.8,32.3,73.7z"/>
		<path class="st56" d="M151.6,85.6c0,0,12.2,2.1,17.3,1.9l-8.6-2.6c0,0-0.4,2.6-3.1-1.5L151.6,85.6z"/>
		<polygon class="st21" points="135.9,54.9 141.4,55.4 142.9,55.7 147.9,55.3 146.4,56.5 141,57.1 		"/>
		<path class="st35" d="M132.6,34.9c-0.8,0.6-1.6,0.6-2.1-0.3c-0.4-0.6,0.1-1.3,0.8-1.3C132.4,33.1,132.7,33.9,132.6,34.9z"/>
		<path class="st45" d="M207.2,86.7c10.7-5.2,11.2-10.6,9.7-17.2C216.2,76.6,215.3,80.8,207.2,86.7L207.2,86.7z"/>
		<g>
			<path class="st57" d="M221.1,82.1c0,0-0.1,0.3-0.4,0.8c-0.1,0.1-0.1,0.3-0.2,0.4c-0.1,0.2-0.2,0.3-0.3,0.5
				c-0.1,0.2-0.2,0.4-0.4,0.6c-0.1,0.2-0.3,0.4-0.5,0.6c-0.1,0.1-0.2,0.2-0.3,0.3c-0.1,0.1-0.2,0.2-0.3,0.3
				c-0.2,0.2-0.4,0.5-0.7,0.7c-0.3,0.2-0.5,0.5-0.8,0.7s-0.6,0.5-0.9,0.7c-1.3,0.9-3,1.8-5,2.2c-2,0.4-4.3,0.3-6.5-0.4
				c-0.3-0.1-0.5-0.2-0.8-0.3l-0.4-0.2l-0.2-0.1h-0.1l0,0h-0.1l-0.1-0.1c-0.5-0.3-1-0.5-1.5-0.9c-1-0.7-1.9-1.6-2.7-2.6
				s-1.4-2.1-2-3.2c-0.5-1.2-0.9-2.4-1.1-3.7c0-0.3-0.1-0.7-0.1-1c-0.1-0.3,0-0.7-0.1-1v-0.5c0-0.2,0-0.3,0-0.5c0-0.3,0-0.7,0.1-1
				c0.1-1.3,0.5-2.6,1-3.9l0.4-0.9c0.1-0.3,0.3-0.6,0.5-0.9l0.3-0.4l0.1-0.2l0.1-0.2l0.6-0.8c0.9-1,1.9-1.9,3-2.7
				c1.1-0.7,2.4-1.3,3.6-1.7c0.3-0.1,0.6-0.2,1-0.2c0.2,0,0.3-0.1,0.5-0.1l0.5-0.1c0.3,0,0.6-0.1,1-0.1c0.3,0,0.6,0,1,0
				c1.3,0,2.6,0.2,3.8,0.6c0.6,0.1,1.2,0.4,1.7,0.6l0.1,0.1h0.1l0,0h0.1l0.2,0.1l0.4,0.2l0.4,0.2c0.1,0.1,0.2,0.1,0.4,0.2
				c0.3,0.2,0.5,0.3,0.8,0.5c0.1,0.1,0.3,0.2,0.4,0.3l0.3,0.3c0.2,0.2,0.4,0.4,0.6,0.6s0.4,0.4,0.6,0.6c0.4,0.4,0.7,0.8,1,1.3
				c0.2,0.2,0.3,0.4,0.4,0.7c0.1,0.2,0.3,0.4,0.4,0.7c1,1.8,1.4,3.6,1.6,5.3c0,0.4,0,0.8,0,1.2c0,0.4,0,0.7,0,1.1
				c0,0.3-0.1,0.7-0.1,1c0,0.2,0,0.3,0,0.5s-0.1,0.3-0.1,0.4c-0.1,0.3-0.1,0.6-0.2,0.8c-0.1,0.3-0.1,0.5-0.2,0.7s-0.1,0.4-0.2,0.6
				c0,0.2-0.1,0.3-0.2,0.5L221.1,82.1L221.1,82.1L221.1,82.1z M220.9,82L220.9,82c0,0,0.1-0.3,0.3-0.9c0-0.2,0.1-0.3,0.2-0.5
				c0-0.2,0.1-0.4,0.2-0.6s0.1-0.4,0.2-0.7c0-0.3,0.1-0.5,0.1-0.8c0-0.1,0-0.3,0.1-0.4c0-0.2,0-0.3,0-0.5c0-0.3,0-0.6,0-1
				c0-0.3,0-0.7-0.1-1c-0.1-0.4-0.1-0.7-0.2-1.1c-0.3-1.5-1-3.1-2-4.6c-0.5-0.7-1.1-1.5-1.9-2.2c-0.2-0.2-0.4-0.3-0.5-0.5
				c-0.2-0.2-0.4-0.3-0.6-0.5l-0.3-0.2c-0.1-0.1-0.2-0.1-0.3-0.2c-0.2-0.1-0.4-0.3-0.6-0.4c-0.1-0.1-0.2-0.1-0.4-0.2l-0.4-0.2
				l-0.4-0.2l-0.2-0.1l0,0l0,0l0,0H214c-0.5-0.2-1-0.4-1.5-0.6c-1-0.3-2.1-0.5-3.3-0.5c-0.3,0-0.6,0-0.9,0c-0.3,0-0.6,0.1-0.9,0.1
				l-0.4,0.1l-0.4,0.1c-0.3,0.1-0.6,0.1-0.9,0.2c-1.1,0.3-2.2,0.8-3.3,1.3l-0.8,0.5c-0.3,0.2-0.5,0.4-0.7,0.5l-0.4,0.3
				c-0.1,0.1-0.2,0.2-0.3,0.3c-0.2,0.2-0.4,0.4-0.7,0.6l-0.6,0.7l-0.1,0.2l-0.1,0.2l-0.3,0.4c-0.4,0.4-0.7,1.1-1,1.6
				c-0.5,1.1-1,2.3-1.2,3.6c-0.2,1.2-0.2,2.5,0,3.8c0.1,0.3,0.1,0.6,0.2,0.9c0,0.2,0.1,0.3,0.1,0.4l0.1,0.4l0.1,0.4
				c0,0.2,0.1,0.3,0.2,0.4c0.1,0.3,0.3,0.6,0.4,0.8c0.1,0.3,0.3,0.5,0.4,0.8c0.1,0.1,0.1,0.3,0.2,0.4l0.3,0.4
				c0.2,0.2,0.4,0.5,0.5,0.7c0.2,0.2,0.4,0.4,0.6,0.7l0.1,0.2l0.2,0.2l0.3,0.3c0.2,0.2,0.4,0.4,0.7,0.6c0.2,0.2,0.5,0.3,0.7,0.5
				s0.5,0.3,0.7,0.4c0.4,0.3,1,0.5,1.5,0.8l0.1,0.1h0.1l0,0l0,0l0.2,0.1l0.4,0.1c0.3,0.1,0.5,0.2,0.8,0.3c2,0.6,4,0.7,5.9,0.5
				c1.8-0.2,3.5-0.8,4.8-1.5c0.3-0.2,0.7-0.4,1-0.6s0.6-0.4,0.8-0.6c0.3-0.2,0.5-0.4,0.7-0.6c0.1-0.1,0.2-0.2,0.3-0.3
				c0.1-0.1,0.2-0.2,0.3-0.3c0.2-0.2,0.4-0.4,0.5-0.6c0.2-0.2,0.3-0.4,0.4-0.6s0.2-0.3,0.3-0.5s0.2-0.3,0.3-0.4
				C220.8,82.3,220.9,82,220.9,82L220.9,82z"/>
		</g>
		<path class="st7" d="M291.2,15.5c0,0-1.3-3,1.5-4.6v1c0,0-2.1,1.6-0.5,3.2L291.2,15.5z"/>
		<polygon class="st7" points="294.8,12.2 296.3,12.2 295.9,13.6 295.1,13.2 		"/>
		<g>
			<polygon class="st36" points="256.7,88.8 257.8,76.9 259,88.8 			"/>
		</g>
		<g>
			<polygon class="st36" points="314.6,88.8 315.8,76.6 316.9,88.8 			"/>
		</g>
		<polygon class="st36" points="320.7,138.4 322,138.6 324,138.9 327.1,139.1 328.3,139.1 327.2,140 324,140 		"/>
		<path class="st36" d="M326.1,140.3c0,0,1.6-0.4,2.2-0.6l-1.8-0.6L326.1,140.3z"/>
		<path d="M241,150.1c0,0,0,1.6-0.5,2.5l1.4-0.5l0.1-1.2L241,150.1L241,150.1z"/>
		<polygon points="223.5,161.9 225.3,162.2 228.8,162.2 231.5,163 230.6,163.4 228.8,163.4 224.5,162.8 		"/>
		<path class="st13" d="M30.2,118.7c-0.4-4.6-0.9-9.1-4.6-12.3L30.2,118.7z"/>
		<path d="M13,132.5c-10-1-16-12.1-11.5-21.1c0.4-0.8,2.1-2.9,3.5-2.8l0,0c0.3,0.7-1.3,2-1.6,2.7c-2.8,6.9-1.2,12.7,4.2,17.5
			C8.7,131.2,11.9,130.2,13,132.5z"/>
		<path d="M25.5,106.4c3.7,3.2,4.3,7.7,4.6,12.3c-0.8,2.5-1.5,5-3.1,7.2c-0.2,0-0.7-0.2-0.8-0.3c0.7-2.1,1.6-3.2,2-6.2
			c0.6-5.3-1.1-9.6-5.3-12.9c-0.8-1.3-2.3-1.6-3.3-2.5C22.1,103.6,23.7,105.3,25.5,106.4z"/>
		<path d="M13,132.5c-1.1-2.2-4.3-1.3-5.3-3.7c3.8,2.2,7.8,3.1,12.1,1.8c0.1,0.3,0.3,0.6,0.4,0.9C17.8,132.2,15.5,133.2,13,132.5
			L13,132.5z"/>
		<path d="M20.2,131.5c-0.1-0.3-0.3-0.6-0.4-0.9c2.6-1.2,4.3-3.2,6.4-5.1c0.2,0.1,0.6,0.3,0.8,0.3C25.5,128.6,23.2,130.5,20.2,131.5
			z"/>
		<path d="M26.7,124.3c0,0-0.6,1.4-1.3,2h1.4l0.5-1L26.7,124.3L26.7,124.3z"/>
		<polygon points="7,128.5 8.5,129.5 11.6,130.7 13.7,132.4 12.7,132.4 11.2,131.7 7.6,129.7 		"/>
		<path class="st45" d="M183.8,91.4c4,7.1,4.1,11,0.3,15.7C186.2,101.5,184.7,96.4,183.8,91.4z"/>
		<path class="st45" d="M157.2,90.9c-4,8.5-4.1,13.8,0,21.1C154.8,103.9,156.3,97.4,157.2,90.9z"/>
		<path class="st45" d="M189,108.6c0,0,1.1,0.8,1.4,1.7l-0.7,0.4c0,0-0.2-0.7-1.8-1.6s0-0.5,0-0.5H189z"/>
		<path class="st5" d="M165.3,114.1c0,0,2.6,3.4,1.9,7.1h-0.9c0,0,1.2-3.5-2.2-5.7L165.3,114.1L165.3,114.1z"/>
		<path d="M182.5,186.9c0,0,1.8,4.2,2.8,7.4l-2.3,1.2l-1.2-6.7L182.5,186.9L182.5,186.9z"/>
		<path class="st24" d="M178.6,182.1c0,0-3.8-0.1-5.7-0.3c-2-0.3-0.8-0.5-0.8-0.5l6.9-0.5L178.6,182.1z"/>
		<polygon class="st24" points="170.9,169.7 169.2,172.3 168.6,171.6 169.7,169.3 		"/>
		<polygon class="st24" points="155.5,155.9 156.7,155.9 156.2,157.8 155.1,157.4 		"/>
		<polygon class="st24" points="154.2,157.4 153.5,158.1 152.4,158.5 153,156.9 		"/>
		<path class="st24" d="M174.7,143.4c0,0,2.9-1.2,11.8,4.2l-1.1,0.9c0,0-7.5-4.3-11.2-4.3L174.7,143.4z"/>
		<path class="st24" d="M191,111.1c0,0,0.4,1,0.9,2.4c0.9,2.7,1.1,7-5,10.1c0,0-1.1,0,0-0.6c-1.1,0.5,7.6-2.9,2.9-12.3l0.2-1.2
			L191,111.1L191,111.1z"/>
		<path class="st1" d="M269.9,142.7c0,0-1-0.8-1.1-4.6l0.3-21l1.2-0.2L269.9,142.7L269.9,142.7z"/>
		<polygon class="st1" points="282.1,127.8 282.1,130 276.5,130.8 269.4,129 270.2,124.2 		"/>
		<polygon class="st1" points="309.7,123.3 311.6,127.5 321.9,127.5 321.4,122.2 		"/>
		<polygon class="st1" points="309.5,123.3 309.1,121.7 308.9,115.2 310,115.4 		"/>
		<polygon class="st17" points="270.2,114 270.2,97.7 282,96.3 280.7,113.6 		"/>
		<polygon class="st17" points="289.5,113.2 289.5,94.4 301.3,94.8 300.5,112.3 		"/>
		<polygon class="st17" points="309.7,112.8 309.5,94.6 320.6,93 321.1,112.1 316.4,114 		"/>
		<path class="st10" d="M245.7,118.2c0,0,4,3,3.8,10.8l-5.2-3C244.2,126,245.7,118.2,245.7,118.2z"/>
		<path class="st10" d="M211.5,134.4c0,0-1,9.7,0.9,10.4l2.5-7.1l-3.4-3.7V134.4z"/>
		<path class="st55" d="M250.7,137.4c0.1-1.9-0.3,4.6,1.5,6.5l8.4,2.2c0,0,3.7-1.6,3.7-5.3L250.7,137.4z"/>
		<path class="st20" d="M147.4,118.2c0,0,0.6,16.3,0.6,16.7l-4.6-2.8L147.4,118.2z"/>
		<path class="st16" d="M194.5,130.2l0.2,10.6c0,0,0.1,5.4,4.3,5.7L194.5,130.2L194.5,130.2z"/>
		<path class="st0" d="M200.5,89.2c0,0,7.9-1,7.4,6.4l-1.1,5.1l-5.8-5.4L200.5,89.2L200.5,89.2z"/>
		<path class="st56" d="M176.8,89.5l-13-0.2l1.3-0.6c0,0,6,0.1,7.4,0L176.8,89.5z"/>
		<polygon class="st22" points="208.3,135 208.2,124.1 205.6,128.6 		"/>
		<path class="st2" d="M88.5,133.3c0,0-2,13.1,4.8,13.5l-1.8-10.9L88.5,133.3L88.5,133.3z"/>
		<path class="st2" d="M124.1,118.2c0,0,0,2.8-1.6,4.2V120L124.1,118.2z"/>
		<polygon class="st2" points="88.7,119 88.3,139 91.2,129 		"/>
		<polygon class="st3" points="88.7,116.5 88.7,95.8 91.2,92.8 104,98.6 101.9,102.6 101.5,105.2 101.5,110.1 103,112.9 109.2,116 
					"/>
		<polygon class="st2" points="91.3,117.4 88.7,117.1 88.7,119.3 		"/>
		<polygon class="st2" points="88.4,137.3 88.7,126.6 95.5,120.9 101.5,126.6 101.5,134.8 104.1,134.4 125,133.8 126.4,140.1 
			91.3,142.6 		"/>
		<path class="st6" d="M83.9,117.4c0,0-27.8,0.1-35.3-3.7l0.2,27.4c0,0,0.3,3.3,2.6,4.4l3.1-0.8l-0.2-20.5
			C54.2,124.2,81.5,124.8,83.9,117.4L83.9,117.4z"/>
		<path class="st4" d="M48.6,96.3c0,0-0.9-7,6.2-7.3c0,0,0.8,17.9,0.9,18.8s-4.5,3.7-4.5,3.7L48.6,96.3z"/>
		<path class="st4" d="M78.5,93.6c0,0,13.4,12.3,5.4,23.7c0,0-6-11.7-6-10.5S78.5,93.6,78.5,93.6z"/>
		<path class="st4" d="M67.7,116.5c0,0,9.6-6.2,0.7-13.6l1.6-3.5l5.5,10.1C75.5,109.6,70,116.4,67.7,116.5z"/>
		<path class="st4" d="M62.2,103.2l0.6,13.3l-2.1-0.9l-0.5-12.3C60.2,103.2,61.4,100.1,62.2,103.2z"/>
		<polygon class="st15" points="7,143.5 6.3,140.7 6.5,135.2 16,135.7 18.8,138.6 15.2,144 		"/>
		<polygon class="st15" points="26.3,132 30.2,137.3 42,133.3 36.5,126.7 		"/>
		<polygon class="st15" points="5.7,124.6 6.3,119.2 24.9,117.4 27,121 25.5,124.6 		"/>
		<path class="st15" d="M5.7,111.4c0,0,16.2,3.5,22.4,3.7l0.2,2.1l-22.6-2.6v-3V111.4z"/>
		<polygon class="st23" points="18.8,98.5 18.8,106.2 15.7,105.4 		"/>
		<polygon class="st6" points="49.4,130 50.2,119.3 69.9,121.4 74.7,126.3 68.2,129.4 59.6,128.5 59.1,136.4 		"/>
		<polygon class="st23" points="6.3,109.4 7,101.6 9.4,96.1 13,93.6 18.3,99.6 17,111.5 		"/>
		<polygon class="st23" points="28.3,98.5 32.2,96.1 44,97.3 44.7,99.4 39.5,103.3 		"/>
		<path class="st58" d="M89.8,157.4c0,9.7-7.8,17.6-17.5,17.6s-17.7-7.9-17.7-17.6s7.9-17.6,17.6-17.6S89.8,147.7,89.8,157.4"/>
		<path class="st59" d="M103.4,73.3c0,9.9-8,17.9-17.9,17.9s-17.8-8-17.8-17.9s8-17.9,17.8-17.9S103.4,63.5,103.4,73.3"/>
		<path class="st60" d="M201.5,52.6c0,9.8-7.9,17.7-17.7,17.7s-17.7-7.9-17.7-17.7s7.9-17.7,17.7-17.7S201.5,42.9,201.5,52.6"/>
		<path class="st61" d="M280,165.4c0,9.9-8.1,18-18,18c-9.9,0-18-8.1-18-18s8-18,18-18C271.9,147.5,280,155.5,280,165.4"/>
		<path class="st9" d="M224,130.4c0,0,0.6,3.2,2.9,3.4l5.1,5.1l-14.1,4.5l-6.5-2.4v-10.7l4.4-5l5.9-2.2L224,130.4L224,130.4z"/>
		<polygon class="st11" points="211.7,116.6 211.7,110 211.5,97.3 216.2,92.3 223.5,92.3 224.9,94.4 225,110.7 225,117 		"/>
		<polygon class="st11" points="251.1,115.2 250.8,98.6 255,92.3 262.9,93.7 264.2,98.9 263.6,115.2 		"/>
		<polygon class="st17" points="321.9,114 322.1,95.2 318.4,91.7 310.5,94.4 308.9,96.3 308.9,115.2 		"/>
		<polygon class="st17" points="302,113.2 302,94.4 293,93.1 288.7,95.3 288.7,114.5 		"/>
		<polygon class="st17" points="282,114.5 282,96.3 274.6,91.7 269.4,98.3 269.2,114 		"/>
		<polygon class="st23" points="34.2,110.6 43.4,101.1 44.4,98.5 37,98.8 30,107.8 		"/>
		<path class="st1" d="M308.9,115.9l13.1-0.7V114c0,0-9.4,1.2-13.1,1C308.9,114.9,308.9,115.9,308.9,115.9z"/>
		<g>
			<path class="st25" d="M40.4,79.7c-1.6,0.1-3.1-0.1-4.7-0.3s-3.1-0.7-4.5-1.4c-0.7-0.3-1.4-0.7-2.1-1.1s-1.3-0.9-1.9-1.4
				s-1.2-1.1-1.7-1.7c-0.2-0.3-0.5-0.6-0.7-1c-0.1-0.2-0.2-0.3-0.3-0.5l-0.3-0.5c-0.8-1.4-1.5-2.9-1.9-4.4c-0.4-1.6-0.6-3.2-0.6-4.8
				c0-1.6,0.3-3.3,0.8-4.8s1.2-3,2-4.4l0.1-0.1l0.1-0.1l0.1-0.1l0.2-0.3l0.4-0.5c0.3-0.3,0.5-0.6,0.8-0.9c0.5-0.6,1.1-1.2,1.6-1.8
				c1.1-1.1,2.3-2.2,3.7-3.1c1.3-0.9,2.7-1.8,4.2-2.5s3-1.2,4.7-1.5c1.6-0.3,3.3-0.3,4.9-0.2s3.2,0.6,4.7,1.2l1.1,0.5
				c0.2,0.1,0.4,0.2,0.5,0.3l0.5,0.3l0.5,0.3l0.3,0.1l0.3,0.2l1,0.7c0.3,0.2,0.7,0.5,1,0.7l1,0.7c0.6,0.5,1.2,1,1.8,1.6L57.5,49
				c0.2,0.2,0.4,0.3,0.6,0.5s0.3,0.3,0.5,0.5c0.3,0.3,0.6,0.7,0.8,1c0.5,0.7,0.9,1.4,1.3,2.2s0.7,1.5,0.9,2.3
				c0.1,0.4,0.2,0.8,0.3,1.2c0.1,0.4,0.2,0.8,0.3,1.2c0.1,0.4,0.1,0.8,0.2,1.2l0.1,0.6l0.1,0.6v0.6v0.3v0.1l0,0v0.1l0,0l0,0v0.2
				c0,0.2,0,0.4-0.1,0.6c0,0.2-0.1,0.4-0.1,0.6l-0.1,0.6L62.2,64c-0.1,0.4-0.2,0.8-0.3,1.2c-0.1,0.2-0.1,0.4-0.2,0.6l-0.2,0.6
				c-0.1,0.4-0.3,0.8-0.4,1.2c-0.2,0.4-0.3,0.8-0.5,1.1l-0.5,1.1c-0.2,0.4-0.4,0.7-0.6,1.1c-0.2,0.3-0.4,0.7-0.6,1.1l-0.7,1
				c-0.2,0.3-0.4,0.7-0.7,1l-0.8,0.9c-0.1,0.2-0.2,0.3-0.4,0.5l-0.4,0.4c-0.6,0.6-1.1,1.2-1.7,1.7l-0.9,0.8
				c-0.2,0.1-0.3,0.3-0.5,0.4l-0.5,0.4l-1,0.7c-0.3,0.2-0.6,0.5-1,0.7l-2,1.2l1.9-1.4c0.3-0.2,0.6-0.5,0.9-0.8l0.9-0.8l0.4-0.4
				c0.2-0.1,0.3-0.3,0.4-0.4l0.8-0.8c0.6-0.5,1.1-1.2,1.6-1.8l0.4-0.4c0.1-0.2,0.2-0.3,0.3-0.5l0.7-0.9c0.2-0.3,0.4-0.7,0.6-1l0.6-1
				c0.2-0.3,0.3-0.7,0.5-1s0.4-0.7,0.5-1l0.4-1.1c0.1-0.4,0.3-0.7,0.4-1.1s0.2-0.7,0.3-1.1l0.2-0.6c0.1-0.2,0.1-0.4,0.1-0.6
				c0.1-0.4,0.2-0.8,0.2-1.1l0.1-0.6l0.1-0.6c0-0.2,0-0.4,0.1-0.6c0-0.2,0-0.4,0-0.6v-0.1l0,0l0,0c0,0,0-0.1,0,0.1l0,0v-0.1v-0.3
				l-0.1-0.6l-0.1-0.6l-0.1-0.6c-0.1-0.4-0.1-0.8-0.2-1.1c-0.1-0.4-0.2-0.8-0.3-1.1c-0.1-0.4-0.2-0.7-0.3-1.1
				c-0.3-0.7-0.5-1.4-0.9-2.1c-0.3-0.7-0.7-1.3-1.2-1.9c-0.2-0.3-0.4-0.6-0.7-0.8c-0.1-0.1-0.3-0.3-0.4-0.4
				c-0.1-0.1-0.3-0.2-0.4-0.3l0,0l-0.1-0.1c-0.6-0.5-1.1-1-1.7-1.5l-0.9-0.7c-0.3-0.2-0.6-0.5-0.9-0.6L51.9,47l-0.2-0.2l-0.2-0.1
				L51,46.4l-0.5-0.3c-0.2-0.1-0.3-0.2-0.5-0.2l-1-0.4c-1.4-0.5-2.8-0.9-4.3-1.1c-1.4-0.2-2.9-0.1-4.4,0.2c-1.4,0.2-2.9,0.7-4.2,1.3
				c-1.3,0.6-2.6,1.4-3.9,2.2c-1.3,0.8-2.3,1.9-3.4,2.9c-0.5,0.5-1.1,1.1-1.6,1.6c-0.2,0.3-0.5,0.6-0.7,0.8l-0.3,0.4L26,54v0.1l0,0
				l0,0c0,0-0.1,0.1,0,0l-0.1,0.1c-0.8,1.3-1.4,2.6-1.9,4s-0.8,2.9-0.9,4.3c-0.2,2.9,0.5,6,2,8.6l0.3,0.5c0.1,0.2,0.2,0.3,0.3,0.5
				c0.2,0.3,0.4,0.6,0.6,0.9c0.5,0.6,1,1.1,1.5,1.7c0.6,0.5,1.1,1,1.8,1.4c0.6,0.4,1.3,0.8,2,1.1c1.4,0.7,2.8,1.2,4.3,1.6
				C37.3,79.4,38.8,79.6,40.4,79.7L40.4,79.7z"/>
		</g>
		<g>
			<path class="st25" d="M33.6,66.7c0,0-0.1-0.4-0.2-1.1s-0.2-1.7,0-2.8c0.1-0.6,0.2-1.2,0.4-1.9c0.2-0.7,0.5-1.3,1-2
				c0.4-0.6,1-1.3,1.6-1.8c0.2-0.1,0.3-0.3,0.5-0.4l0.5-0.3l0.5-0.3c0.2-0.1,0.4-0.2,0.6-0.3c0.7-0.3,1.5-0.6,2.3-0.8
				s1.6-0.4,2.3-0.4c0.8,0,1.5,0,2.2,0.1s1.4,0.3,1.9,0.6c0.6,0.3,1.1,0.6,1.4,0.9c0.4,0.3,0.7,0.6,0.9,0.9c0.2,0.3,0.4,0.5,0.5,0.7
				s0.2,0.2,0.2,0.2l-0.1,0.1c0,0-0.1,0-0.2-0.2c-0.1,0-0.2-0.1-0.3-0.2s-0.2-0.2-0.4-0.2c-0.1-0.1-0.3-0.2-0.5-0.3
				s-0.4-0.2-0.6-0.3c-0.4-0.2-0.9-0.3-1.4-0.5c-1-0.3-2.3-0.4-3.6-0.3c-0.7,0-1.4,0.1-2.1,0.2c-0.7,0.1-1.4,0.3-2.1,0.5
				c-0.2,0.1-0.4,0.1-0.5,0.2l-0.5,0.3l-0.5,0.3L37.1,58c-0.6,0.4-1.1,0.9-1.5,1.4c-0.8,1.1-1.3,2.3-1.6,3.4
				c-0.3,1.1-0.3,2.1-0.3,2.7c0,0.7,0.1,1,0.1,1L33.6,66.7z"/>
		</g>
		<polygon class="st4" points="69.3,115.2 73,111 72.3,104.9 66.4,101.1 62.1,102.4 61.5,106.2 62.2,115.8 49.4,112.6 49.4,93.6 
			51.6,91.1 56.4,89.5 62.7,89.5 60.7,94.4 65.6,93.6 66.7,91.8 69.9,93.6 73.5,92.9 76.5,92.9 82.7,102.2 85.5,109.2 83.1,115.8 
			82.1,116.5 68.2,116.4 		"/>
		<polygon class="st6" points="61.5,140.1 62,134.5 56.8,132 53.5,136.6 54.4,140.7 		"/>
		<path class="st2" d="M88.7,116.5c0,0,26.2,1.5,35.4,0.8v0.9l-17.7,2.1L88.7,118V116.5z"/>
	</g>
</g>
</svg>
