<svg xmlns="http://www.w3.org/2000/svg" xmlns:xlink="http://www.w3.org/1999/xlink" viewBox="0,0,256,256" width="24px" height="24px" fill-rule="nonzero"><g fill="#ffffff" fill-rule="nonzero" stroke="none" stroke-width="1" stroke-linecap="butt" stroke-linejoin="miter" stroke-miterlimit="10" stroke-dasharray="" stroke-dashoffset="0" font-family="none" font-weight="none" font-size="none" text-anchor="none" style="mix-blend-mode: normal"><g transform="scale(10.66667,10.66667)"><path d="M12,3c-4.95852,0 -9,4.04148 -9,9c0,5.4 3.14258,10.51367 3.14258,10.51367l1.71484,-1.02734c0,0 -2.85742,-4.88633 -2.85742,-9.48633c0,-3.87748 3.12252,-7 7,-7c3.87748,0 7,3.12252 7,7c0,0.56503 -0.43497,1 -1,1c-0.56503,0 -1,-0.43497 -1,-1c0,-2.74952 -2.25048,-5 -5,-5c-2.74952,0 -5,2.25048 -5,5c0,6.66667 6.55273,9.89453 6.55273,9.89453l0.89453,-1.78906c0,0 -5.44727,-2.77214 -5.44727,-8.10547c0,-1.66848 1.33152,-3 3,-3c1.66848,0 3,1.33152 3,3c0,1.64497 1.35503,3 3,3c1.64497,0 3,-1.35503 3,-3c0,-4.95852 -4.04148,-9 -9,-9zM11,11c0,1.72222 0.5522,3.92887 2.11133,5.77148c1.55913,1.84261 4.15058,3.22852 7.88867,3.22852v-2c-3.2619,0 -5.17046,-1.11409 -6.36133,-2.52148c-1.19087,-1.40739 -1.63867,-3.20074 -1.63867,-4.47852z"></path></g></g></svg>