<svg xmlns="http://www.w3.org/2000/svg" xmlns:xlink="http://www.w3.org/1999/xlink" viewBox="0,0,256,256" width="50px" height="50px" fill-rule="nonzero"><g fill="#ffffff" fill-rule="nonzero" stroke="none" stroke-width="1" stroke-linecap="butt" stroke-linejoin="miter" stroke-miterlimit="10" stroke-dasharray="" stroke-dashoffset="0" font-family="none" font-weight="none" font-size="none" text-anchor="none" style="mix-blend-mode: normal"><g transform="scale(5.12,5.12)"><path d="M24.42578,3c-1.36328,0.00781 -2.73047,0.08984 -4.10937,0.25781c-2.63672,0.32422 -5.25,0.86328 -7.75781,2.01562c-3.98828,1.83203 -6.81641,4.94141 -7.63672,9.46094c-0.34766,1.90625 -0.62891,3.83984 -0.78906,5.78516c-0.30859,3.77734 -0.11719,7.56641 0.95313,11.28906c0.84375,2.93359 2.39844,5.57031 5.12109,7.28125c1.15234,0.72266 2.67188,1.07422 3.46484,1.44141c0.22266,0.10547 0.27734,0.16797 0.28906,0.18359c0.01172,0.01172 0.04297,0.03906 0.03906,0.27344c-0.02734,2.39063 0,7.01563 0,7.01563l0.00391,0.99609h1.78516l0.28906,-0.28125c0,0 4.53516,-4.36328 6.17578,-6.16016c0.29688,-0.32031 0.44922,-0.5 0.48047,-0.51953c0.02734,-0.01953 -0.01953,-0.03125 0.28516,-0.03906c2.15234,-0.04297 4.30078,-0.125 6.44922,-0.24219c2.83203,-0.15625 5.71875,-0.42578 8.49609,-1.58594c2.41797,-1.01172 4.4375,-2.66406 5.66016,-5.14062c1.25,-2.53906 1.91797,-5.23047 2.16797,-8.01562c0.41406,-4.63672 0.26953,-9.28125 -1.01172,-13.85937c-0.75391,-2.68359 -2.26953,-4.95312 -4.59375,-6.55469c-2.78125,-1.91406 -5.91797,-2.63281 -8.98828,-3.08984c-1.79297,-0.26562 -3.59766,-0.44141 -5.41016,-0.49609c-0.45312,-0.01172 -0.90625,-0.01953 -1.36328,-0.01562zM25.73438,5.01563c1.72266,0.04688 3.44531,0.21484 5.17188,0.47266c2.96094,0.44141 5.75391,1.11328 8.14844,2.76172c1.94141,1.33594 3.15234,3.14063 3.80078,5.44141c1.19531,4.28125 1.34766,8.66797 0.94531,13.14844c-0.23047,2.58203 -0.84375,5.01563 -1.97266,7.30859c-0.99609,2.02344 -2.55078,3.30859 -4.63672,4.17969c-2.42187,1.01172 -5.05469,1.28125 -7.82812,1.43359c-2.125,0.11719 -4.25391,0.19531 -6.38281,0.23828c-0.53516,0.01172 -1.05859,0.15234 -1.42969,0.42578c-0.37109,0.27344 -0.53906,0.52734 -0.76953,0.77734c-1.17187,1.28125 -3.50781,3.53516 -4.78125,4.76953c-0.00781,-1.49219 -0.01953,-3.29687 0,-4.96094c0.00781,-0.51172 -0.10937,-1.03516 -0.40234,-1.44922c-0.29297,-0.41406 -0.69531,-0.66406 -1.08203,-0.84375c-1.12891,-0.52344 -2.60547,-0.92187 -3.24609,-1.32422c-2.23828,-1.40625 -3.50781,-3.51562 -4.26172,-6.14062c-0.98828,-3.43359 -1.17578,-6.96875 -0.88281,-10.56641c0.15625,-1.86719 0.42578,-3.73828 0.76563,-5.59375c0.71094,-3.91016 2.94531,-6.37109 6.5,-8.00391c2.24609,-1.03125 4.64453,-1.53906 7.17188,-1.84766c1.72266,-0.21094 3.44531,-0.27734 5.17188,-0.22656zM26.15625,10c-0.82422,0 -1.625,0.09375 -2.40234,0.26563c-0.53516,0.125 -0.875,0.66016 -0.75391,1.19922c0.12109,0.53906 0.66016,0.875 1.19922,0.75391c0.62891,-0.14453 1.28516,-0.21875 1.95703,-0.21875c4.88281,0 8.82031,3.9375 8.82031,8.81641c0,0.67578 -0.07422,1.33203 -0.21875,1.96484c-0.12109,0.53516 0.21484,1.07422 0.75391,1.19531c0.53906,0.12109 1.07422,-0.21875 1.19531,-0.75781c0.17578,-0.77344 0.26953,-1.57422 0.26953,-2.40234c0,-5.96094 -4.85547,-10.81641 -10.82031,-10.81641zM16.17969,12.00391c-0.16406,-0.00781 -0.33203,0.00391 -0.50781,0.04297c-1.81641,0.40234 -3.62109,1.71875 -3.67187,4.07031c0.05078,0.32813 0.04688,0.67969 0.16797,0.97656c0.59375,1.45313 1.10938,2.95313 1.85156,4.32813c3.61328,6.67969 9.07813,11.32422 16.04297,14.27344c0.83203,0.35156 1.69141,0.42578 2.53125,0.07422c1.15625,-0.48047 2.13672,-1.22266 2.78906,-2.28906c0.89453,-1.46484 0.90625,-2.48047 -0.56641,-3.5625c-0.96484,-0.71094 -1.91406,-1.44141 -2.89062,-2.13672c-1.48828,-1.05469 -3.09766,-1.23828 -4.20703,0.61328c-0.05859,0.09375 -0.14453,0.17188 -0.21875,0.25c-0.57031,0.60547 -1.26953,0.75391 -2.01172,0.44922c-2.81641,-1.16016 -4.99219,-3.03125 -6.30469,-5.81641c-0.77344,-1.63672 -0.5625,-2.45703 0.88281,-3.54687c0.14453,-0.10547 0.28125,-0.21875 0.41406,-0.33984c0.63281,-0.57812 0.80078,-1.26562 0.42578,-2.04297c-0.84766,-1.77344 -1.97656,-3.35547 -3.40625,-4.71875c-0.38672,-0.36719 -0.82812,-0.59766 -1.32031,-0.625zM26.14063,13c-0.44141,0 -0.87891,0.03516 -1.30859,0.10938c-0.36328,0.04688 -0.67187,0.28906 -0.80469,0.62891c-0.13281,0.34375 -0.06641,0.73047 0.16797,1.01172c0.23828,0.27734 0.61328,0.40625 0.97266,0.32813c0.3125,-0.05078 0.64063,-0.07812 0.97266,-0.07812c3.25,0 5.85938,2.60938 5.85938,5.85938c0,0.33203 -0.02734,0.66016 -0.07812,0.97266c-0.07812,0.35938 0.05078,0.73438 0.32813,0.97266c0.28125,0.23438 0.66797,0.30078 1.01172,0.16797c0.33984,-0.13281 0.58203,-0.44141 0.62891,-0.80469c0.07422,-0.42969 0.10938,-0.86719 0.10938,-1.30859c0,-4.32812 -3.53125,-7.85937 -7.85937,-7.85937zM26,16c-0.35937,-0.00391 -0.69531,0.18359 -0.87891,0.49609c-0.17969,0.3125 -0.17969,0.69531 0,1.00781c0.18359,0.3125 0.51953,0.5 0.87891,0.49609c1.66797,0 3,1.33203 3,3c-0.00391,0.35938 0.18359,0.69531 0.49609,0.87891c0.3125,0.17969 0.69531,0.17969 1.00781,0c0.3125,-0.18359 0.5,-0.51953 0.49609,-0.87891c0,-2.75 -2.25,-5 -5,-5z"></path></g></g></svg>